<svg width="276" height="230" viewBox="0 0 276 230" fill="none" xmlns="http://www.w3.org/2000/svg">
<path d="M68.4937 214.006H267.666" stroke="#CCCCCC" stroke-width="0.760775" stroke-dasharray="3.04 1.52"/>
<path d="M68.874 0V214.386" stroke="#CCCCCC" stroke-width="0.760775" stroke-dasharray="3.04 1.52"/>
<path d="M118.477 0V214.386" stroke="#CCCCCC" stroke-width="0.760775" stroke-dasharray="3.04 1.52"/>
<path d="M168.08 0V214.386" stroke="#CCCCCC" stroke-width="0.760775" stroke-dasharray="3.04 1.52"/>
<path d="M217.683 0V214.386" stroke="#CCCCCC" stroke-width="0.760775" stroke-dasharray="3.04 1.52"/>
<path d="M24.7372 35.1334V37.5094C24.6569 37.6282 24.5291 37.762 24.3538 37.9106C24.1785 38.0562 23.9363 38.184 23.6272 38.2939C23.3211 38.4009 22.9259 38.4544 22.4415 38.4544C22.0462 38.4544 21.6822 38.386 21.3493 38.2493C21.0195 38.1097 20.7327 37.9076 20.489 37.6431C20.2483 37.3756 20.0611 37.0517 19.9273 36.6713C19.7966 36.288 19.7312 35.8541 19.7312 35.3697V34.866C19.7312 34.3816 19.7877 33.9492 19.9006 33.5688C20.0165 33.1884 20.1859 32.866 20.4088 32.6015C20.6316 32.334 20.905 32.1319 21.229 31.9952C21.5529 31.8556 21.9244 31.7857 22.3434 31.7857C22.8397 31.7857 23.2542 31.8719 23.5871 32.0443C23.9229 32.2137 24.1844 32.4484 24.3716 32.7486C24.5618 33.0487 24.6837 33.3905 24.7372 33.7738H23.8768C23.8382 33.5391 23.7609 33.3251 23.645 33.1319C23.5321 32.9388 23.3701 32.7842 23.1591 32.6683C22.9481 32.5495 22.6762 32.49 22.3434 32.49C22.0432 32.49 21.7832 32.545 21.5633 32.655C21.3434 32.7649 21.1621 32.9224 21.0195 33.1275C20.8768 33.3325 20.7698 33.5807 20.6985 33.8719C20.6302 34.1631 20.596 34.4915 20.596 34.8571V35.3697C20.596 35.7441 20.6391 36.0785 20.7253 36.3727C20.8144 36.6669 20.9407 36.918 21.1042 37.126C21.2676 37.3311 21.4623 37.4871 21.6881 37.5941C21.9169 37.701 22.1695 37.7545 22.4459 37.7545C22.752 37.7545 23.0001 37.7293 23.1903 37.6788C23.3805 37.6253 23.5291 37.5629 23.6361 37.4915C23.7431 37.4172 23.8248 37.3474 23.8813 37.282V35.8288H22.379V35.1334H24.7372ZM28.0403 38.4544C27.7045 38.4544 27.3999 38.3979 27.1265 38.285C26.856 38.1691 26.6227 38.0071 26.4266 37.7991C26.2334 37.5911 26.0849 37.3444 25.9808 37.0591C25.8768 36.7738 25.8248 36.4618 25.8248 36.123V35.9358C25.8248 35.5435 25.8828 35.1943 25.9987 34.8883C26.1146 34.5792 26.2721 34.3177 26.4712 34.1037C26.6703 33.8897 26.8961 33.7278 27.1487 33.6178C27.4013 33.5079 27.6629 33.4529 27.9333 33.4529C28.278 33.4529 28.5752 33.5123 28.8248 33.6312C29.0774 33.7501 29.284 33.9165 29.4444 34.1305C29.6049 34.3414 29.7238 34.5911 29.8011 34.8793C29.8783 35.1646 29.917 35.4767 29.917 35.8155V36.1854H26.3152V35.5123H29.0923V35.4499C29.0804 35.236 29.0358 35.0279 28.9586 34.8258C28.8843 34.6238 28.7654 34.4573 28.6019 34.3266C28.4385 34.1958 28.2156 34.1305 27.9333 34.1305C27.7461 34.1305 27.5737 34.1706 27.4162 34.2508C27.2587 34.3281 27.1235 34.444 27.0106 34.5985C26.8976 34.753 26.81 34.9417 26.7476 35.1646C26.6851 35.3875 26.6539 35.6446 26.6539 35.9358V36.123C26.6539 36.3519 26.6851 36.5673 26.7476 36.7694C26.8129 36.9685 26.9065 37.1438 27.0284 37.2954C27.1532 37.447 27.3033 37.5658 27.4786 37.652C27.6569 37.7382 27.859 37.7813 28.0849 37.7813C28.3761 37.7813 28.6227 37.7218 28.8248 37.603C29.0269 37.4841 29.2037 37.3251 29.3553 37.126L29.8545 37.5227C29.7505 37.6802 29.6183 37.8303 29.4578 37.973C29.2973 38.1156 29.0997 38.2315 28.8649 38.3207C28.6331 38.4098 28.3583 38.4544 28.0403 38.4544ZM31.7045 34.5718V38.3652H30.8798V33.542H31.6599L31.7045 34.5718ZM31.5083 35.7709L31.1651 35.7575C31.1681 35.4276 31.2171 35.123 31.3122 34.8437C31.4073 34.5614 31.541 34.3162 31.7134 34.1082C31.8858 33.9001 32.0908 33.7397 32.3286 33.6267C32.5693 33.5108 32.8352 33.4529 33.1265 33.4529C33.3642 33.4529 33.5782 33.4856 33.7684 33.551C33.9586 33.6134 34.1205 33.7144 34.2543 33.8541C34.391 33.9938 34.495 34.175 34.5663 34.3979C34.6376 34.6178 34.6733 34.8868 34.6733 35.2048V38.3652H33.8442V35.1958C33.8442 34.9432 33.807 34.7412 33.7327 34.5896C33.6584 34.4351 33.55 34.3236 33.4073 34.2553C33.2647 34.1839 33.0893 34.1483 32.8813 34.1483C32.6762 34.1483 32.489 34.1914 32.3196 34.2776C32.1532 34.3637 32.0091 34.4826 31.8872 34.6342C31.7684 34.7857 31.6748 34.9596 31.6064 35.1557C31.541 35.3489 31.5083 35.5539 31.5083 35.7709ZM37.9274 38.4544C37.5916 38.4544 37.287 38.3979 37.0136 38.285C36.7431 38.1691 36.5098 38.0071 36.3137 37.7991C36.1205 37.5911 35.9719 37.3444 35.8679 37.0591C35.7639 36.7738 35.7119 36.4618 35.7119 36.123V35.9358C35.7119 35.5435 35.7699 35.1943 35.8858 34.8883C36.0017 34.5792 36.1592 34.3177 36.3583 34.1037C36.5574 33.8897 36.7832 33.7278 37.0358 33.6178C37.2884 33.5079 37.55 33.4529 37.8204 33.4529C38.1651 33.4529 38.4623 33.5123 38.7119 33.6312C38.9645 33.7501 39.1711 33.9165 39.3315 34.1305C39.492 34.3414 39.6109 34.5911 39.6882 34.8793C39.7654 35.1646 39.8041 35.4767 39.8041 35.8155V36.1854H36.2023V35.5123H38.9794V35.4499C38.9675 35.236 38.9229 35.0279 38.8457 34.8258C38.7714 34.6238 38.6525 34.4573 38.489 34.3266C38.3256 34.1958 38.1027 34.1305 37.8204 34.1305C37.6332 34.1305 37.4608 34.1706 37.3033 34.2508C37.1458 34.3281 37.0106 34.444 36.8977 34.5985C36.7847 34.753 36.6971 34.9417 36.6347 35.1646C36.5722 35.3875 36.541 35.6446 36.541 35.9358V36.123C36.541 36.3519 36.5722 36.5673 36.6347 36.7694C36.7 36.9685 36.7936 37.1438 36.9155 37.2954C37.0403 37.447 37.1904 37.5658 37.3657 37.652C37.544 37.7382 37.7461 37.7813 37.972 37.7813C38.2632 37.7813 38.5098 37.7218 38.7119 37.603C38.914 37.4841 39.0908 37.3251 39.2424 37.126L39.7416 37.5227C39.6376 37.6802 39.5054 37.8303 39.3449 37.973C39.1844 38.1156 38.9868 38.2315 38.752 38.3207C38.5202 38.4098 38.2454 38.4544 37.9274 38.4544ZM41.5916 34.2998V38.3652H40.7669V33.542H41.5693L41.5916 34.2998ZM43.0983 33.5153L43.0938 34.282C43.0255 34.2672 42.9601 34.2582 42.8977 34.2553C42.8382 34.2493 42.7699 34.2464 42.6926 34.2464C42.5024 34.2464 42.3345 34.2761 42.1889 34.3355C42.0433 34.3949 41.92 34.4782 41.8189 34.5851C41.7179 34.6921 41.6376 34.8199 41.5782 34.9685C41.5217 35.1141 41.4846 35.2746 41.4668 35.4499L41.235 35.5837C41.235 35.2924 41.2632 35.019 41.3197 34.7634C41.3791 34.5079 41.4697 34.282 41.5916 34.0859C41.7134 33.8868 41.868 33.7322 42.0552 33.6223C42.2454 33.5094 42.4712 33.4529 42.7327 33.4529C42.7922 33.4529 42.8605 33.4603 42.9378 33.4752C43.0151 33.4871 43.0685 33.5004 43.0983 33.5153ZM46.5262 37.5406V35.0576C46.5262 34.8675 46.4876 34.7025 46.4103 34.5628C46.336 34.4202 46.2231 34.3102 46.0715 34.233C45.92 34.1557 45.7327 34.1171 45.5099 34.1171C45.3018 34.1171 45.1191 34.1527 44.9616 34.2241C44.807 34.2954 44.6852 34.389 44.596 34.5049C44.5099 34.6208 44.4668 34.7456 44.4668 34.8793H43.6421C43.6421 34.707 43.6867 34.5361 43.7758 34.3667C43.865 34.1973 43.9928 34.0443 44.1592 33.9076C44.3286 33.7679 44.5307 33.6579 44.7654 33.5777C45.0032 33.4945 45.2677 33.4529 45.5589 33.4529C45.9096 33.4529 46.2186 33.5123 46.4861 33.6312C46.7565 33.7501 46.9675 33.9299 47.1191 34.1706C47.2736 34.4083 47.3509 34.707 47.3509 35.0666V37.3132C47.3509 37.4737 47.3643 37.6446 47.391 37.8259C47.4207 38.0071 47.4638 38.1632 47.5203 38.2939V38.3652H46.6599C46.6183 38.2701 46.5856 38.1438 46.5619 37.9863C46.5381 37.8259 46.5262 37.6773 46.5262 37.5406ZM46.6689 35.441L46.6778 36.0205H45.8442C45.6094 36.0205 45.3999 36.0398 45.2157 36.0785C45.0314 36.1141 44.8769 36.1691 44.7521 36.2434C44.6272 36.3177 44.5321 36.4113 44.4668 36.5242C44.4014 36.6342 44.3687 36.7634 44.3687 36.912C44.3687 37.0636 44.4029 37.2018 44.4712 37.3266C44.5396 37.4514 44.6421 37.551 44.7788 37.6253C44.9185 37.6966 45.0894 37.7322 45.2914 37.7322C45.544 37.7322 45.7669 37.6788 45.9601 37.5718C46.1533 37.4648 46.3063 37.334 46.4192 37.1795C46.5351 37.025 46.5975 36.8749 46.6064 36.7293L46.9586 37.126C46.9378 37.2508 46.8813 37.389 46.7892 37.5406C46.6971 37.6921 46.5738 37.8377 46.4192 37.9774C46.2677 38.1141 46.0864 38.2285 45.8754 38.3207C45.6674 38.4098 45.4326 38.4544 45.1711 38.4544C44.8442 38.4544 44.5574 38.3905 44.3108 38.2627C44.0671 38.1349 43.8769 37.964 43.7402 37.7501C43.6064 37.5331 43.5396 37.2909 43.5396 37.0235C43.5396 36.7649 43.5901 36.5376 43.6911 36.3415C43.7922 36.1423 43.9378 35.9774 44.128 35.8467C44.3182 35.7129 44.547 35.6119 44.8145 35.5435C45.0819 35.4752 45.3806 35.441 45.7105 35.441H46.6689ZM50.6674 33.542V34.175H48.0596V33.542H50.6674ZM48.9423 32.3697H49.7669V37.1706C49.7669 37.334 49.7922 37.4574 49.8427 37.5406C49.8932 37.6238 49.9586 37.6788 50.0388 37.7055C50.1191 37.7322 50.2053 37.7456 50.2974 37.7456C50.3657 37.7456 50.4371 37.7397 50.5114 37.7278C50.5886 37.7129 50.6466 37.701 50.6852 37.6921L50.6897 38.3652C50.6243 38.386 50.5381 38.4054 50.4311 38.4232C50.3271 38.444 50.2008 38.4544 50.0522 38.4544C49.8501 38.4544 49.6644 38.4143 49.495 38.334C49.3256 38.2538 49.1904 38.1201 49.0894 37.9328C48.9913 37.7426 48.9423 37.4871 48.9423 37.1661V32.3697ZM53.6362 38.4544C53.3004 38.4544 52.9958 38.3979 52.7224 38.285C52.4519 38.1691 52.2186 38.0071 52.0225 37.7991C51.8293 37.5911 51.6808 37.3444 51.5767 37.0591C51.4727 36.7738 51.4207 36.4618 51.4207 36.123V35.9358C51.4207 35.5435 51.4787 35.1943 51.5946 34.8883C51.7105 34.5792 51.868 34.3177 52.0671 34.1037C52.2662 33.8897 52.4921 33.7278 52.7447 33.6178C52.9973 33.5079 53.2588 33.4529 53.5292 33.4529C53.8739 33.4529 54.1711 33.5123 54.4207 33.6312C54.6733 33.7501 54.8799 33.9165 55.0404 34.1305C55.2008 34.3414 55.3197 34.5911 55.397 34.8793C55.4742 35.1646 55.5129 35.4767 55.5129 35.8155V36.1854H51.9111V35.5123H54.6882V35.4499C54.6763 35.236 54.6317 35.0279 54.5545 34.8258C54.4802 34.6238 54.3613 34.4573 54.1979 34.3266C54.0344 34.1958 53.8115 34.1305 53.5292 34.1305C53.342 34.1305 53.1696 34.1706 53.0121 34.2508C52.8546 34.3281 52.7194 34.444 52.6065 34.5985C52.4935 34.753 52.4059 34.9417 52.3435 35.1646C52.2811 35.3875 52.2499 35.6446 52.2499 35.9358V36.123C52.2499 36.3519 52.2811 36.5673 52.3435 36.7694C52.4088 36.9685 52.5025 37.1438 52.6243 37.2954C52.7491 37.447 52.8992 37.5658 53.0745 37.652C53.2528 37.7382 53.4549 37.7813 53.6808 37.7813C53.972 37.7813 54.2187 37.7218 54.4207 37.603C54.6228 37.4841 54.7996 37.3251 54.9512 37.126L55.4505 37.5227C55.3464 37.6802 55.2142 37.8303 55.0537 37.973C54.8932 38.1156 54.6956 38.2315 54.4609 38.3207C54.2291 38.4098 53.9542 38.4544 53.6362 38.4544ZM59.5158 37.4291V31.5183H60.345V38.3652H59.5872L59.5158 37.4291ZM56.2707 36.0071V35.9135C56.2707 35.545 56.3152 35.2107 56.4044 34.9105C56.4965 34.6074 56.6258 34.3474 56.7922 34.1305C56.9616 33.9135 57.1622 33.7471 57.394 33.6312C57.6288 33.5123 57.8903 33.4529 58.1785 33.4529C58.4817 33.4529 58.7462 33.5064 58.972 33.6134C59.2008 33.7174 59.394 33.8704 59.5515 34.0725C59.712 34.2716 59.8383 34.5123 59.9304 34.7946C60.0225 35.077 60.0864 35.3964 60.1221 35.753V36.1631C60.0894 36.5168 60.0255 36.8348 59.9304 37.1171C59.8383 37.3994 59.712 37.6401 59.5515 37.8392C59.394 38.0383 59.2008 38.1914 58.972 38.2984C58.7432 38.4024 58.4757 38.4544 58.1696 38.4544C57.8873 38.4544 57.6288 38.3935 57.394 38.2716C57.1622 38.1498 56.9616 37.9789 56.7922 37.759C56.6258 37.5391 56.4965 37.2805 56.4044 36.9834C56.3152 36.6832 56.2707 36.3578 56.2707 36.0071ZM57.0998 35.9135V36.0071C57.0998 36.2478 57.1236 36.4737 57.1711 36.6847C57.2216 36.8957 57.2989 37.0814 57.4029 37.2419C57.5069 37.4024 57.6392 37.5287 57.7996 37.6208C57.9601 37.71 58.1518 37.7545 58.3747 37.7545C58.6481 37.7545 58.8725 37.6966 59.0478 37.5807C59.2261 37.4648 59.3687 37.3117 59.4757 37.1215C59.5827 36.9314 59.6659 36.7248 59.7254 36.5019V35.4276C59.6897 35.2642 59.6377 35.1067 59.5693 34.9551C59.504 34.8006 59.4178 34.6639 59.3108 34.545C59.2068 34.4232 59.0775 34.3266 58.923 34.2553C58.7714 34.1839 58.5916 34.1483 58.3836 34.1483C58.1577 34.1483 57.9631 34.1958 57.7996 34.2909C57.6392 34.3831 57.5069 34.5108 57.4029 34.6743C57.2989 34.8348 57.2216 35.022 57.1711 35.236C57.1236 35.447 57.0998 35.6728 57.0998 35.9135Z" fill="#333333"/>
<path d="M17.7891 109.878H16.434L16.4429 109.178H17.7891C18.2527 109.178 18.6391 109.082 18.9481 108.888C19.2572 108.692 19.489 108.419 19.6435 108.068C19.801 107.715 19.8798 107.302 19.8798 106.829V106.432C19.8798 106.061 19.8352 105.731 19.7461 105.443C19.6569 105.151 19.5261 104.906 19.3538 104.707C19.1814 104.505 18.9704 104.352 18.7208 104.248C18.4741 104.144 18.1903 104.092 17.8694 104.092H16.4073V103.388H17.8694C18.2943 103.388 18.6822 103.459 19.0328 103.602C19.3835 103.741 19.6851 103.945 19.9377 104.212C20.1933 104.477 20.3894 104.798 20.5261 105.175C20.6628 105.55 20.7312 105.972 20.7312 106.441V106.829C20.7312 107.299 20.6628 107.722 20.5261 108.099C20.3894 108.474 20.1918 108.793 19.9333 109.058C19.6777 109.322 19.3686 109.526 19.0061 109.669C18.6465 109.808 18.2408 109.878 17.7891 109.878ZM16.8931 103.388V109.878H16.0328V103.388H16.8931ZM22.7951 105.055V109.878H21.966V105.055H22.7951ZM21.9036 103.776C21.9036 103.642 21.9437 103.529 22.0239 103.437C22.1071 103.345 22.229 103.299 22.3894 103.299C22.547 103.299 22.6673 103.345 22.7505 103.437C22.8367 103.529 22.8798 103.642 22.8798 103.776C22.8798 103.903 22.8367 104.013 22.7505 104.105C22.6673 104.195 22.547 104.239 22.3894 104.239C22.229 104.239 22.1071 104.195 22.0239 104.105C21.9437 104.013 21.9036 103.903 21.9036 103.776ZM26.9273 108.599C26.9273 108.48 26.9006 108.37 26.8471 108.269C26.7966 108.165 26.6911 108.071 26.5306 107.988C26.3731 107.902 26.1354 107.828 25.8174 107.765C25.5499 107.709 25.3077 107.642 25.0908 107.565C24.8768 107.487 24.6941 107.394 24.5425 107.284C24.3939 107.174 24.2795 107.044 24.1993 106.896C24.119 106.747 24.0789 106.573 24.0789 106.374C24.0789 106.184 24.1205 106.004 24.2037 105.835C24.2899 105.666 24.4103 105.515 24.5648 105.385C24.7223 105.254 24.911 105.151 25.1309 105.077C25.3508 105.003 25.596 104.966 25.8664 104.966C26.2528 104.966 26.5826 105.034 26.856 105.171C27.1294 105.307 27.3389 105.49 27.4846 105.719C27.6302 105.945 27.703 106.196 27.703 106.472H26.8783C26.8783 106.339 26.8382 106.209 26.758 106.085C26.6807 105.957 26.5663 105.851 26.4147 105.768C26.2661 105.685 26.0834 105.643 25.8664 105.643C25.6376 105.643 25.4519 105.679 25.3092 105.75C25.1695 105.819 25.067 105.906 25.0016 106.013C24.9392 106.12 24.908 106.233 24.908 106.352C24.908 106.441 24.9229 106.521 24.9526 106.593C24.9853 106.661 25.0418 106.725 25.122 106.784C25.2022 106.841 25.3152 106.894 25.4608 106.945C25.6064 106.995 25.7921 107.046 26.018 107.096C26.4132 107.186 26.7386 107.293 26.9942 107.417C27.2498 107.542 27.44 107.695 27.5648 107.877C27.6896 108.058 27.752 108.278 27.752 108.536C27.752 108.747 27.7074 108.94 27.6183 109.116C27.5321 109.291 27.4058 109.443 27.2394 109.57C27.0759 109.695 26.8798 109.793 26.651 109.865C26.4251 109.933 26.171 109.967 25.8887 109.967C25.4637 109.967 25.1042 109.891 24.81 109.74C24.5158 109.588 24.2929 109.392 24.1413 109.151C23.9897 108.911 23.914 108.657 23.914 108.389H24.7431C24.755 108.615 24.8204 108.795 24.9392 108.929C25.0581 109.059 25.2037 109.153 25.3761 109.209C25.5484 109.263 25.7193 109.29 25.8887 109.29C26.1146 109.29 26.3033 109.26 26.4548 109.2C26.6094 109.141 26.7268 109.059 26.807 108.955C26.8872 108.851 26.9273 108.732 26.9273 108.599ZM29.6599 105.982V111.732H28.8308V105.055H29.5886L29.6599 105.982ZM32.9095 107.426V107.52C32.9095 107.871 32.8679 108.196 32.7847 108.496C32.7015 108.793 32.5797 109.052 32.4192 109.272C32.2617 109.492 32.067 109.663 31.8352 109.784C31.6034 109.906 31.3375 109.967 31.0373 109.967C30.7312 109.967 30.4608 109.917 30.226 109.816C29.9912 109.715 29.7921 109.568 29.6287 109.374C29.4652 109.181 29.3345 108.949 29.2364 108.679C29.1413 108.409 29.0759 108.104 29.0403 107.765V107.266C29.0759 106.909 29.1428 106.59 29.2409 106.307C29.3389 106.025 29.4682 105.784 29.6287 105.585C29.7921 105.383 29.9898 105.23 30.2216 105.126C30.4534 105.019 30.7208 104.966 31.0239 104.966C31.3271 104.966 31.596 105.025 31.8308 105.144C32.0655 105.26 32.2632 105.426 32.4236 105.643C32.5841 105.86 32.7045 106.12 32.7847 106.423C32.8679 106.724 32.9095 107.058 32.9095 107.426ZM32.0804 107.52V107.426C32.0804 107.186 32.0551 106.96 32.0046 106.749C31.9541 106.535 31.8754 106.348 31.7684 106.187C31.6644 106.024 31.5306 105.896 31.3672 105.804C31.2037 105.709 31.0091 105.661 30.7832 105.661C30.5752 105.661 30.3939 105.697 30.2394 105.768C30.0878 105.839 29.9586 105.936 29.8516 106.058C29.7446 106.177 29.6569 106.313 29.5886 106.468C29.5232 106.619 29.4742 106.777 29.4415 106.94V108.095C29.5009 108.303 29.5841 108.499 29.6911 108.683C29.7981 108.865 29.9407 109.012 30.119 109.125C30.2973 109.235 30.5217 109.29 30.7921 109.29C31.015 109.29 31.2067 109.244 31.3672 109.151C31.5306 109.056 31.6644 108.927 31.7684 108.764C31.8754 108.6 31.9541 108.413 32.0046 108.202C32.0551 107.988 32.0804 107.761 32.0804 107.52ZM36.8055 109.053V106.57C36.8055 106.38 36.7669 106.215 36.6896 106.076C36.6153 105.933 36.5024 105.823 36.3508 105.746C36.1993 105.669 36.0121 105.63 35.7892 105.63C35.5812 105.63 35.3984 105.666 35.2409 105.737C35.0864 105.808 34.9645 105.902 34.8754 106.018C34.7892 106.134 34.7461 106.258 34.7461 106.392H33.9214C33.9214 106.22 33.966 106.049 34.0552 105.88C34.1443 105.71 34.2721 105.557 34.4385 105.42C34.6079 105.281 34.81 105.171 35.0448 105.091C35.2825 105.007 35.547 104.966 35.8382 104.966C36.1889 104.966 36.498 105.025 36.7654 105.144C37.0358 105.263 37.2468 105.443 37.3984 105.683C37.5529 105.921 37.6302 106.22 37.6302 106.579V108.826C37.6302 108.987 37.6436 109.157 37.6703 109.339C37.7 109.52 37.7431 109.676 37.7996 109.807V109.878H36.9393C36.8977 109.783 36.865 109.657 36.8412 109.499C36.8174 109.339 36.8055 109.19 36.8055 109.053ZM36.9482 106.954L36.9571 107.533H36.1235C35.8887 107.533 35.6792 107.553 35.495 107.591C35.3107 107.627 35.1562 107.682 35.0314 107.756C34.9066 107.83 34.8115 107.924 34.7461 108.037C34.6807 108.147 34.648 108.276 34.648 108.425C34.648 108.576 34.6822 108.715 34.7505 108.839C34.8189 108.964 34.9214 109.064 35.0581 109.138C35.1978 109.209 35.3687 109.245 35.5708 109.245C35.8234 109.245 36.0462 109.192 36.2394 109.085C36.4326 108.978 36.5856 108.847 36.6985 108.692C36.8144 108.538 36.8769 108.388 36.8858 108.242L37.2379 108.639C37.2171 108.764 37.1607 108.902 37.0685 109.053C36.9764 109.205 36.8531 109.351 36.6985 109.49C36.547 109.627 36.3657 109.741 36.1547 109.833C35.9467 109.923 35.7119 109.967 35.4504 109.967C35.1235 109.967 34.8367 109.903 34.5901 109.776C34.3464 109.648 34.1562 109.477 34.0195 109.263C33.8858 109.046 33.8189 108.804 33.8189 108.536C33.8189 108.278 33.8694 108.05 33.9705 107.854C34.0715 107.655 34.2171 107.49 34.4073 107.359C34.5975 107.226 34.8263 107.125 35.0938 107.056C35.3612 106.988 35.6599 106.954 35.9898 106.954H36.9482ZM40.9467 105.055V105.688H38.339V105.055H40.9467ZM39.2216 103.882H40.0463V108.683C40.0463 108.847 40.0715 108.97 40.122 109.053C40.1726 109.137 40.2379 109.192 40.3182 109.218C40.3984 109.245 40.4846 109.258 40.5767 109.258C40.6451 109.258 40.7164 109.252 40.7907 109.241C40.8679 109.226 40.9259 109.214 40.9645 109.205L40.969 109.878C40.9036 109.899 40.8174 109.918 40.7104 109.936C40.6064 109.957 40.4801 109.967 40.3315 109.967C40.1295 109.967 39.9437 109.927 39.7743 109.847C39.6049 109.767 39.4697 109.633 39.3687 109.446C39.2706 109.255 39.2216 109 39.2216 108.679V103.882ZM43.8442 109.29C44.0403 109.29 44.2216 109.25 44.388 109.169C44.5544 109.089 44.6911 108.979 44.7981 108.839C44.9051 108.697 44.966 108.535 44.9809 108.354H45.7654C45.7506 108.639 45.654 108.905 45.4757 109.151C45.3004 109.395 45.07 109.593 44.7847 109.744C44.4995 109.893 44.1859 109.967 43.8442 109.967C43.4816 109.967 43.1651 109.903 42.8947 109.776C42.6272 109.648 42.4044 109.472 42.226 109.25C42.0507 109.027 41.9185 108.771 41.8293 108.483C41.7431 108.192 41.7 107.884 41.7 107.56V107.373C41.7 107.049 41.7431 106.743 41.8293 106.455C41.9185 106.163 42.0507 105.906 42.226 105.683C42.4044 105.461 42.6272 105.285 42.8947 105.157C43.1651 105.03 43.4816 104.966 43.8442 104.966C44.2216 104.966 44.5515 105.043 44.8338 105.198C45.1161 105.349 45.3375 105.557 45.498 105.822C45.6614 106.083 45.7506 106.38 45.7654 106.713H44.9809C44.966 106.514 44.9096 106.334 44.8115 106.174C44.7164 106.013 44.5856 105.885 44.4192 105.79C44.2558 105.692 44.0641 105.643 43.8442 105.643C43.5916 105.643 43.3791 105.694 43.2067 105.795C43.0373 105.893 42.9021 106.027 42.8011 106.196C42.703 106.362 42.6317 106.548 42.5871 106.753C42.5455 106.955 42.5247 107.162 42.5247 107.373V107.56C42.5247 107.771 42.5455 107.979 42.5871 108.184C42.6287 108.389 42.6986 108.575 42.7966 108.741C42.8977 108.908 43.0329 109.041 43.2023 109.143C43.3746 109.241 43.5886 109.29 43.8442 109.29ZM47.5173 103.031V109.878H46.6926V103.031H47.5173ZM47.3212 107.284L46.9779 107.27C46.9809 106.94 47.0299 106.636 47.125 106.356C47.2201 106.074 47.3538 105.829 47.5262 105.621C47.6986 105.413 47.9036 105.252 48.1414 105.14C48.3821 105.024 48.6481 104.966 48.9393 104.966C49.177 104.966 49.391 104.998 49.5812 105.064C49.7714 105.126 49.9334 105.227 50.0671 105.367C50.2038 105.507 50.3078 105.688 50.3791 105.911C50.4504 106.131 50.4861 106.4 50.4861 106.718V109.878H49.657V106.709C49.657 106.456 49.6198 106.254 49.5455 106.102C49.4712 105.948 49.3628 105.836 49.2201 105.768C49.0775 105.697 48.9021 105.661 48.6941 105.661C48.4891 105.661 48.3018 105.704 48.1325 105.79C47.966 105.877 47.8219 105.995 47.7001 106.147C47.5812 106.299 47.4876 106.472 47.4192 106.669C47.3538 106.862 47.3212 107.067 47.3212 107.284ZM53.7224 109.967C53.3866 109.967 53.0819 109.911 52.8085 109.798C52.5381 109.682 52.3048 109.52 52.1087 109.312C51.9155 109.104 51.7669 108.857 51.6629 108.572C51.5589 108.287 51.5069 107.975 51.5069 107.636V107.449C51.5069 107.056 51.5649 106.707 51.6808 106.401C51.7967 106.092 51.9542 105.83 52.1533 105.617C52.3524 105.403 52.5782 105.241 52.8308 105.131C53.0834 105.021 53.3449 104.966 53.6154 104.966C53.9601 104.966 54.2573 105.025 54.5069 105.144C54.7595 105.263 54.9661 105.429 55.1265 105.643C55.287 105.854 55.4059 106.104 55.4831 106.392C55.5604 106.677 55.599 106.989 55.599 107.328V107.698H51.9972V107.025H54.7744V106.963C54.7625 106.749 54.7179 106.541 54.6406 106.339C54.5663 106.137 54.4475 105.97 54.284 105.839C54.1206 105.709 53.8977 105.643 53.6154 105.643C53.4282 105.643 53.2558 105.683 53.0983 105.764C52.9408 105.841 52.8056 105.957 52.6926 106.111C52.5797 106.266 52.492 106.455 52.4296 106.677C52.3672 106.9 52.336 107.157 52.336 107.449V107.636C52.336 107.865 52.3672 108.08 52.4296 108.282C52.495 108.481 52.5886 108.657 52.7105 108.808C52.8353 108.96 52.9854 109.079 53.1607 109.165C53.339 109.251 53.5411 109.294 53.7669 109.294C54.0582 109.294 54.3048 109.235 54.5069 109.116C54.709 108.997 54.8858 108.838 55.0374 108.639L55.5366 109.036C55.4326 109.193 55.3004 109.343 55.1399 109.486C54.9794 109.628 54.7818 109.744 54.547 109.833C54.3152 109.923 54.0403 109.967 53.7224 109.967ZM59.602 108.942V103.031H60.4311V109.878H59.6733L59.602 108.942ZM56.3568 107.52V107.426C56.3568 107.058 56.4014 106.724 56.4906 106.423C56.5827 106.12 56.712 105.86 56.8784 105.643C57.0478 105.426 57.2484 105.26 57.4802 105.144C57.7149 105.025 57.9765 104.966 58.2647 104.966C58.5678 104.966 58.8323 105.019 59.0582 105.126C59.287 105.23 59.4802 105.383 59.6377 105.585C59.7982 105.784 59.9245 106.025 60.0166 106.307C60.1087 106.59 60.1726 106.909 60.2083 107.266V107.676C60.1756 108.03 60.1117 108.348 60.0166 108.63C59.9245 108.912 59.7982 109.153 59.6377 109.352C59.4802 109.551 59.287 109.704 59.0582 109.811C58.8294 109.915 58.5619 109.967 58.2558 109.967C57.9735 109.967 57.7149 109.906 57.4802 109.784C57.2484 109.663 57.0478 109.492 56.8784 109.272C56.712 109.052 56.5827 108.793 56.4906 108.496C56.4014 108.196 56.3568 107.871 56.3568 107.52ZM57.186 107.426V107.52C57.186 107.761 57.2097 107.987 57.2573 108.198C57.3078 108.409 57.3851 108.594 57.4891 108.755C57.5931 108.915 57.7253 109.041 57.8858 109.134C58.0463 109.223 58.238 109.267 58.4609 109.267C58.7343 109.267 58.9586 109.209 59.134 109.094C59.3123 108.978 59.4549 108.825 59.5619 108.634C59.6689 108.444 59.7521 108.238 59.8115 108.015V106.94C59.7759 106.777 59.7239 106.619 59.6555 106.468C59.5901 106.313 59.504 106.177 59.397 106.058C59.293 105.936 59.1637 105.839 59.0092 105.768C58.8576 105.697 58.6778 105.661 58.4698 105.661C58.2439 105.661 58.0493 105.709 57.8858 105.804C57.7253 105.896 57.5931 106.024 57.4891 106.187C57.3851 106.348 57.3078 106.535 57.2573 106.749C57.2097 106.96 57.186 107.186 57.186 107.426Z" fill="#333333"/>
<path d="M3.81746 175.476L1.66887 181.391H0.790706L3.26471 174.901H3.83083L3.81746 175.476ZM5.61836 181.391L3.4653 175.476L3.45193 174.901H4.01805L6.50097 181.391H5.61836ZM5.50691 178.988V179.692H1.86055V178.988H5.50691ZM9.17557 180.802C9.37171 180.802 9.55299 180.762 9.71941 180.682C9.88583 180.602 10.0225 180.492 10.1295 180.352C10.2365 180.21 10.2974 180.048 10.3123 179.866H11.0968C11.082 180.152 10.9854 180.418 10.8071 180.664C10.6317 180.908 10.4014 181.106 10.1161 181.257C9.83085 181.406 9.51733 181.48 9.17557 181.48C8.81302 181.48 8.49652 181.416 8.22609 181.288C7.95863 181.161 7.73575 180.985 7.55744 180.762C7.38211 180.539 7.24986 180.284 7.16071 179.996C7.07453 179.704 7.03144 179.397 7.03144 179.073V178.886C7.03144 178.562 7.07453 178.256 7.16071 177.967C7.24986 177.676 7.38211 177.419 7.55744 177.196C7.73575 176.973 7.95863 176.798 8.22609 176.67C8.49652 176.542 8.81302 176.479 9.17557 176.479C9.55299 176.479 9.88285 176.556 10.1652 176.71C10.4475 176.862 10.6689 177.07 10.8294 177.334C10.9928 177.596 11.082 177.893 11.0968 178.226H10.3123C10.2974 178.027 10.241 177.847 10.1429 177.687C10.0478 177.526 9.91703 177.398 9.75061 177.303C9.58716 177.205 9.39548 177.156 9.17557 177.156C8.92297 177.156 8.71049 177.207 8.53813 177.308C8.36873 177.406 8.23352 177.539 8.13248 177.709C8.03441 177.875 7.96309 178.061 7.91851 178.266C7.87691 178.468 7.8561 178.675 7.8561 178.886V179.073C7.8561 179.284 7.87691 179.492 7.91851 179.697C7.96012 179.902 8.02995 180.088 8.12802 180.254C8.22906 180.421 8.36428 180.554 8.53367 180.655C8.70603 180.753 8.92 180.802 9.17557 180.802ZM12.8531 174.544V181.391H12.024V174.544H12.8531ZM15.7997 176.568L13.6956 178.819L12.5188 180.04L12.452 179.162L13.2945 178.155L14.7922 176.568H15.7997ZM15.0463 181.391L13.3257 179.091L13.7536 178.355L16.0181 181.391H15.0463ZM17.4757 177.597V181.391H16.6511V176.568H17.4312L17.4757 177.597ZM17.2796 178.797L16.9364 178.783C16.9393 178.453 16.9884 178.149 17.0835 177.869C17.1786 177.587 17.3123 177.342 17.4847 177.134C17.657 176.926 17.8621 176.765 18.0998 176.652C18.3405 176.536 18.6065 176.479 18.8977 176.479C19.1355 176.479 19.3494 176.511 19.5396 176.577C19.7298 176.639 19.8918 176.74 20.0255 176.88C20.1622 177.019 20.2662 177.201 20.3376 177.424C20.4089 177.643 20.4445 177.912 20.4445 178.23V181.391H19.6154V178.221C19.6154 177.969 19.5783 177.767 19.504 177.615C19.4297 177.461 19.3212 177.349 19.1786 177.281C19.0359 177.21 18.8606 177.174 18.6526 177.174C18.4475 177.174 18.2603 177.217 18.0909 177.303C17.9245 177.389 17.7803 177.508 17.6585 177.66C17.5396 177.811 17.446 177.985 17.3777 178.181C17.3123 178.375 17.2796 178.58 17.2796 178.797ZM21.4787 179.033V178.93C21.4787 178.583 21.5292 178.26 21.6303 177.963C21.7313 177.663 21.8769 177.403 22.0671 177.183C22.2573 176.96 22.4876 176.788 22.7581 176.666C23.0285 176.541 23.3316 176.479 23.6674 176.479C24.0062 176.479 24.3108 176.541 24.5813 176.666C24.8547 176.788 25.0865 176.96 25.2767 177.183C25.4698 177.403 25.6169 177.663 25.718 177.963C25.819 178.26 25.8695 178.583 25.8695 178.93V179.033C25.8695 179.38 25.819 179.703 25.718 180C25.6169 180.297 25.4698 180.557 25.2767 180.78C25.0865 181 24.8561 181.172 24.5857 181.297C24.3183 181.419 24.0151 181.48 23.6764 181.48C23.3376 181.48 23.033 181.419 22.7625 181.297C22.4921 181.172 22.2603 181 22.0671 180.78C21.8769 180.557 21.7313 180.297 21.6303 180C21.5292 179.703 21.4787 179.38 21.4787 179.033ZM22.3034 178.93V179.033C22.3034 179.273 22.3316 179.501 22.3881 179.715C22.4446 179.926 22.5292 180.113 22.6422 180.276C22.7581 180.44 22.9022 180.569 23.0746 180.664C23.2469 180.756 23.4475 180.802 23.6764 180.802C23.9022 180.802 24.0998 180.756 24.2692 180.664C24.4416 180.569 24.5842 180.44 24.6972 180.276C24.8101 180.113 24.8948 179.926 24.9512 179.715C25.0107 179.501 25.0404 179.273 25.0404 179.033V178.93C25.0404 178.692 25.0107 178.468 24.9512 178.257C24.8948 178.043 24.8086 177.854 24.6927 177.691C24.5798 177.525 24.4371 177.394 24.2648 177.299C24.0954 177.204 23.8963 177.156 23.6674 177.156C23.4416 177.156 23.2425 177.204 23.0701 177.299C22.9007 177.394 22.7581 177.525 22.6422 177.691C22.5292 177.854 22.4446 178.043 22.3881 178.257C22.3316 178.468 22.3034 178.692 22.3034 178.93ZM28.1251 180.535L29.3643 176.568H29.9082L29.8012 177.357L28.5397 181.391H28.0092L28.1251 180.535ZM27.2915 176.568L28.348 180.58L28.4238 181.391H27.8666L26.4668 176.568H27.2915ZM31.0939 180.548L32.1013 176.568H32.9215L31.5218 181.391H30.9691L31.0939 180.548ZM30.0285 176.568L31.241 180.468L31.3792 181.391H30.8532L29.556 177.348L29.449 176.568H30.0285ZM34.6645 174.544V181.391H33.8354V174.544H34.6645ZM37.9899 181.48C37.6541 181.48 37.3495 181.424 37.0761 181.311C36.8057 181.195 36.5724 181.033 36.3762 180.825C36.1831 180.617 36.0345 180.37 35.9305 180.085C35.8265 179.799 35.7745 179.487 35.7745 179.149V178.961C35.7745 178.569 35.8324 178.22 35.9483 177.914C36.0642 177.605 36.2217 177.343 36.4208 177.129C36.6199 176.915 36.8458 176.753 37.0984 176.643C37.351 176.534 37.6125 176.479 37.8829 176.479C38.2277 176.479 38.5248 176.538 38.7745 176.657C39.0271 176.776 39.2336 176.942 39.3941 177.156C39.5546 177.367 39.6734 177.617 39.7507 177.905C39.828 178.19 39.8666 178.502 39.8666 178.841V179.211H36.2648V178.538H39.0419V178.476C39.03 178.262 38.9855 178.054 38.9082 177.851C38.8339 177.649 38.715 177.483 38.5516 177.352C38.3881 177.221 38.1652 177.156 37.8829 177.156C37.6957 177.156 37.5233 177.196 37.3658 177.276C37.2083 177.354 37.0731 177.47 36.9602 177.624C36.8473 177.779 36.7596 177.967 36.6972 178.19C36.6348 178.413 36.6036 178.67 36.6036 178.961V179.149C36.6036 179.377 36.6348 179.593 36.6972 179.795C36.7626 179.994 36.8562 180.169 36.978 180.321C37.1028 180.473 37.2529 180.591 37.4282 180.678C37.6066 180.764 37.8086 180.807 38.0345 180.807C38.3257 180.807 38.5724 180.747 38.7745 180.629C38.9765 180.51 39.1534 180.351 39.3049 180.152L39.8042 180.548C39.7002 180.706 39.5679 180.856 39.4074 180.999C39.247 181.141 39.0493 181.257 38.8146 181.346C38.5828 181.435 38.3079 181.48 37.9899 181.48ZM43.8696 180.455V174.544H44.6987V181.391H43.9409L43.8696 180.455ZM40.6244 179.033V178.939C40.6244 178.571 40.669 178.236 40.7581 177.936C40.8502 177.633 40.9795 177.373 41.1459 177.156C41.3153 176.939 41.5159 176.773 41.7477 176.657C41.9825 176.538 42.244 176.479 42.5323 176.479C42.8354 176.479 43.0999 176.532 43.3257 176.639C43.5546 176.743 43.7477 176.896 43.9052 177.098C44.0657 177.297 44.192 177.538 44.2841 177.82C44.3763 178.103 44.4402 178.422 44.4758 178.779V179.189C44.4431 179.542 44.3792 179.86 44.2841 180.143C44.192 180.425 44.0657 180.666 43.9052 180.865C43.7477 181.064 43.5546 181.217 43.3257 181.324C43.0969 181.428 42.8294 181.48 42.5234 181.48C42.241 181.48 41.9825 181.419 41.7477 181.297C41.5159 181.175 41.3153 181.005 41.1459 180.785C40.9795 180.565 40.8502 180.306 40.7581 180.009C40.669 179.709 40.6244 179.383 40.6244 179.033ZM41.4535 178.939V179.033C41.4535 179.273 41.4773 179.499 41.5248 179.71C41.5754 179.921 41.6526 180.107 41.7566 180.268C41.8606 180.428 41.9929 180.554 42.1534 180.646C42.3138 180.736 42.5055 180.78 42.7284 180.78C43.0018 180.78 43.2262 180.722 43.4015 180.606C43.5798 180.49 43.7225 180.337 43.8295 180.147C43.9364 179.957 44.0196 179.75 44.0791 179.528V178.453C44.0434 178.29 43.9914 178.132 43.9231 177.981C43.8577 177.826 43.7715 177.69 43.6645 177.571C43.5605 177.449 43.4312 177.352 43.2767 177.281C43.1251 177.21 42.9453 177.174 42.7373 177.174C42.5115 177.174 42.3168 177.221 42.1534 177.317C41.9929 177.409 41.8606 177.536 41.7566 177.7C41.6526 177.86 41.5754 178.048 41.5248 178.262C41.4773 178.473 41.4535 178.698 41.4535 178.939ZM49.1073 176.568H49.8562V181.288C49.8562 181.713 49.77 182.076 49.5977 182.376C49.4253 182.676 49.1846 182.904 48.8755 183.058C48.5694 183.216 48.2158 183.294 47.8146 183.294C47.6482 183.294 47.452 183.268 47.2262 183.214C47.0033 183.164 46.7834 183.076 46.5665 182.951C46.3525 182.829 46.1727 182.664 46.0271 182.456L46.4595 181.966C46.6616 182.21 46.8725 182.379 47.0925 182.474C47.3153 182.569 47.5353 182.617 47.7522 182.617C48.0137 182.617 48.2396 182.568 48.4298 182.47C48.62 182.372 48.7671 182.226 48.8711 182.033C48.9781 181.843 49.0315 181.608 49.0315 181.328V177.629L49.1073 176.568ZM45.7864 179.033V178.939C45.7864 178.571 45.8295 178.236 45.9156 177.936C46.0048 177.633 46.1311 177.373 46.2945 177.156C46.461 176.939 46.6616 176.773 46.8963 176.657C47.1311 176.538 47.3956 176.479 47.6898 176.479C47.9929 176.479 48.2574 176.532 48.4832 176.639C48.7121 176.743 48.9052 176.896 49.0627 177.098C49.2232 177.297 49.3495 177.538 49.4416 177.82C49.5338 178.103 49.5977 178.422 49.6333 178.779V179.189C49.6006 179.542 49.5367 179.86 49.4416 180.143C49.3495 180.425 49.2232 180.666 49.0627 180.865C48.9052 181.064 48.7121 181.217 48.4832 181.324C48.2544 181.428 47.987 181.48 47.6809 181.48C47.3926 181.48 47.1311 181.419 46.8963 181.297C46.6645 181.175 46.4654 181.005 46.299 180.785C46.1326 180.565 46.0048 180.306 45.9156 180.009C45.8295 179.709 45.7864 179.383 45.7864 179.033ZM46.611 178.939V179.033C46.611 179.273 46.6348 179.499 46.6824 179.71C46.7329 179.921 46.8087 180.107 46.9097 180.268C47.0137 180.428 47.146 180.554 47.3064 180.646C47.4669 180.736 47.6586 180.78 47.8815 180.78C48.1549 180.78 48.3807 180.722 48.559 180.606C48.7373 180.49 48.8785 180.337 48.9825 180.147C49.0895 179.957 49.1727 179.75 49.2321 179.528V178.453C49.1994 178.29 49.1489 178.132 49.0806 177.981C49.0152 177.826 48.929 177.69 48.822 177.571C48.718 177.449 48.5887 177.352 48.4342 177.281C48.2797 177.21 48.0984 177.174 47.8904 177.174C47.6645 177.174 47.4699 177.221 47.3064 177.317C47.146 177.409 47.0137 177.536 46.9097 177.7C46.8087 177.86 46.7329 178.048 46.6824 178.262C46.6348 178.473 46.611 178.698 46.611 178.939ZM53.1103 181.48C52.7745 181.48 52.4699 181.424 52.1965 181.311C51.9261 181.195 51.6928 181.033 51.4966 180.825C51.3035 180.617 51.1549 180.37 51.0509 180.085C50.9469 179.799 50.8948 179.487 50.8948 179.149V178.961C50.8948 178.569 50.9528 178.22 51.0687 177.914C51.1846 177.605 51.3421 177.343 51.5412 177.129C51.7403 176.915 51.9662 176.753 52.2188 176.643C52.4714 176.534 52.7329 176.479 53.0033 176.479C53.348 176.479 53.6452 176.538 53.8949 176.657C54.1475 176.776 54.354 176.942 54.5145 177.156C54.6749 177.367 54.7938 177.617 54.8711 177.905C54.9484 178.19 54.987 178.502 54.987 178.841V179.211H51.3852V178.538H54.1623V178.476C54.1504 178.262 54.1059 178.054 54.0286 177.851C53.9543 177.649 53.8354 177.483 53.672 177.352C53.5085 177.221 53.2856 177.156 53.0033 177.156C52.8161 177.156 52.6437 177.196 52.4862 177.276C52.3287 177.354 52.1935 177.47 52.0806 177.624C51.9677 177.779 51.88 177.967 51.8176 178.19C51.7552 178.413 51.724 178.67 51.724 178.961V179.149C51.724 179.377 51.7552 179.593 51.8176 179.795C51.883 179.994 51.9766 180.169 52.0984 180.321C52.2232 180.473 52.3733 180.591 52.5486 180.678C52.7269 180.764 52.929 180.807 53.1549 180.807C53.4461 180.807 53.6928 180.747 53.8949 180.629C54.0969 180.51 54.2738 180.351 54.4253 180.152L54.9246 180.548C54.8206 180.706 54.6883 180.856 54.5278 180.999C54.3674 181.141 54.1697 181.257 53.935 181.346C53.7032 181.435 53.4283 181.48 53.1103 181.48ZM58.99 180.455V174.544H59.8191V181.391H59.0613L58.99 180.455ZM55.7448 179.033V178.939C55.7448 178.571 55.7894 178.236 55.8785 177.936C55.9706 177.633 56.0999 177.373 56.2663 177.156C56.4357 176.939 56.6363 176.773 56.8681 176.657C57.1029 176.538 57.3644 176.479 57.6527 176.479C57.9558 176.479 58.2203 176.532 58.4461 176.639C58.675 176.743 58.8681 176.896 59.0256 177.098C59.1861 177.297 59.3124 177.538 59.4045 177.82C59.4967 178.103 59.5605 178.422 59.5962 178.779V179.189C59.5635 179.542 59.4996 179.86 59.4045 180.143C59.3124 180.425 59.1861 180.666 59.0256 180.865C58.8681 181.064 58.675 181.217 58.4461 181.324C58.2173 181.428 57.9498 181.48 57.6438 181.48C57.3614 181.48 57.1029 181.419 56.8681 181.297C56.6363 181.175 56.4357 181.005 56.2663 180.785C56.0999 180.565 55.9706 180.306 55.8785 180.009C55.7894 179.709 55.7448 179.383 55.7448 179.033ZM56.5739 178.939V179.033C56.5739 179.273 56.5977 179.499 56.6452 179.71C56.6958 179.921 56.773 180.107 56.877 180.268C56.981 180.428 57.1133 180.554 57.2738 180.646C57.4342 180.736 57.6259 180.78 57.8488 180.78C58.1222 180.78 58.3466 180.722 58.5219 180.606C58.7002 180.49 58.8429 180.337 58.9498 180.147C59.0568 179.957 59.14 179.75 59.1995 179.528V178.453C59.1638 178.29 59.1118 178.132 59.0435 177.981C58.9781 177.826 58.8919 177.69 58.7849 177.571C58.6809 177.449 58.5516 177.352 58.3971 177.281C58.2455 177.21 58.0657 177.174 57.8577 177.174C57.6319 177.174 57.4372 177.221 57.2738 177.317C57.1133 177.409 56.981 177.536 56.877 177.7C56.773 177.86 56.6958 178.048 56.6452 178.262C56.5977 178.473 56.5739 178.698 56.5739 178.939Z" fill="#333333"/>
<path d="M71.6379 224.189V225.178C71.6379 225.71 71.5903 226.159 71.4952 226.524C71.4001 226.89 71.2634 227.184 71.0851 227.407C70.9068 227.63 70.6914 227.792 70.4388 227.893C70.1891 227.991 69.9068 228.04 69.5918 228.04C69.3422 228.04 69.1119 228.009 68.9009 227.946C68.6899 227.884 68.4997 227.785 68.3303 227.648C68.1639 227.508 68.0212 227.327 67.9023 227.104C67.7835 226.881 67.6928 226.611 67.6304 226.293C67.568 225.975 67.5368 225.603 67.5368 225.178V224.189C67.5368 223.657 67.5844 223.211 67.6795 222.851C67.7775 222.492 67.9157 222.204 68.094 221.987C68.2723 221.767 68.4863 221.609 68.7359 221.514C68.9885 221.419 69.2708 221.371 69.5829 221.371C69.8355 221.371 70.0673 221.403 70.2783 221.465C70.4922 221.524 70.6824 221.621 70.8489 221.755C71.0153 221.886 71.1564 222.061 71.2723 222.281C71.3912 222.498 71.4818 222.764 71.5443 223.079C71.6067 223.394 71.6379 223.764 71.6379 224.189ZM70.8087 225.312V224.05C70.8087 223.759 70.7909 223.504 70.7552 223.284C70.7226 223.061 70.6735 222.871 70.6081 222.713C70.5428 222.556 70.4596 222.428 70.3585 222.33C70.2604 222.232 70.146 222.16 70.0153 222.116C69.8875 222.068 69.7434 222.045 69.5829 222.045C69.3867 222.045 69.2129 222.082 69.0613 222.156C68.9098 222.227 68.782 222.342 68.678 222.499C68.5769 222.657 68.4997 222.863 68.4462 223.119C68.3927 223.374 68.3659 223.685 68.3659 224.05V225.312C68.3659 225.603 68.3823 225.86 68.415 226.083C68.4506 226.306 68.5026 226.499 68.571 226.663C68.6393 226.823 68.7226 226.955 68.8206 227.059C68.9187 227.163 69.0316 227.241 69.1594 227.291C69.2902 227.339 69.4343 227.363 69.5918 227.363C69.7939 227.363 69.9707 227.324 70.1223 227.247C70.2738 227.169 70.4001 227.049 70.5012 226.886C70.6052 226.719 70.6824 226.507 70.733 226.248C70.7835 225.987 70.8087 225.675 70.8087 225.312Z" fill="#333333"/>
<path d="M117.928 227.273V227.951H113.68V227.358L115.806 224.991C116.068 224.7 116.27 224.453 116.412 224.251C116.558 224.046 116.659 223.863 116.716 223.703C116.775 223.539 116.805 223.373 116.805 223.204C116.805 222.99 116.76 222.796 116.671 222.624C116.585 222.449 116.457 222.309 116.288 222.205C116.118 222.101 115.913 222.049 115.672 222.049C115.384 222.049 115.143 222.105 114.95 222.218C114.76 222.328 114.617 222.483 114.522 222.682C114.427 222.881 114.38 223.11 114.38 223.368H113.555C113.555 223.003 113.635 222.669 113.796 222.365C113.956 222.062 114.194 221.822 114.509 221.643C114.824 221.462 115.212 221.371 115.672 221.371C116.083 221.371 116.433 221.444 116.724 221.59C117.016 221.732 117.239 221.935 117.393 222.196C117.551 222.455 117.629 222.758 117.629 223.105C117.629 223.296 117.597 223.489 117.531 223.685C117.469 223.878 117.381 224.071 117.268 224.264C117.158 224.458 117.029 224.648 116.88 224.835C116.735 225.022 116.579 225.206 116.412 225.388L114.674 227.273H117.928ZM119.854 224.862L119.194 224.692L119.519 221.461H122.849V222.223H120.219L120.023 223.988C120.142 223.92 120.292 223.856 120.473 223.796C120.658 223.737 120.869 223.707 121.106 223.707C121.406 223.707 121.675 223.759 121.913 223.863C122.151 223.964 122.353 224.11 122.519 224.3C122.689 224.49 122.818 224.719 122.907 224.987C122.996 225.254 123.041 225.553 123.041 225.883C123.041 226.195 122.998 226.481 122.912 226.743C122.828 227.004 122.702 227.233 122.533 227.429C122.363 227.623 122.149 227.773 121.891 227.88C121.635 227.987 121.334 228.04 120.986 228.04C120.724 228.04 120.476 228.004 120.242 227.933C120.01 227.859 119.802 227.747 119.617 227.599C119.436 227.447 119.288 227.26 119.172 227.037C119.059 226.811 118.987 226.547 118.958 226.244H119.742C119.778 226.487 119.849 226.692 119.956 226.859C120.063 227.025 120.203 227.152 120.375 227.238C120.551 227.321 120.754 227.363 120.986 227.363C121.182 227.363 121.356 227.328 121.508 227.26C121.659 227.192 121.787 227.094 121.891 226.966C121.995 226.838 122.074 226.683 122.127 226.502C122.184 226.321 122.212 226.117 122.212 225.891C122.212 225.686 122.184 225.496 122.127 225.321C122.071 225.146 121.986 224.993 121.873 224.862C121.763 224.731 121.628 224.63 121.467 224.559C121.307 224.484 121.123 224.447 120.915 224.447C120.638 224.447 120.429 224.484 120.286 224.559C120.146 224.633 120.002 224.734 119.854 224.862Z" fill="#333333"/>
<path d="M164.321 224.862L163.662 224.692L163.987 221.461H167.317V222.223H164.687L164.491 223.988C164.61 223.92 164.76 223.856 164.941 223.796C165.125 223.737 165.336 223.707 165.574 223.707C165.874 223.707 166.143 223.759 166.381 223.863C166.618 223.964 166.821 224.11 166.987 224.3C167.156 224.49 167.286 224.719 167.375 224.987C167.464 225.254 167.508 225.553 167.508 225.883C167.508 226.195 167.465 226.481 167.379 226.743C167.296 227.004 167.17 227.233 167 227.429C166.831 227.623 166.617 227.773 166.358 227.88C166.103 227.987 165.801 228.04 165.454 228.04C165.192 228.04 164.944 228.004 164.709 227.933C164.477 227.859 164.269 227.747 164.085 227.599C163.904 227.447 163.755 227.26 163.639 227.037C163.526 226.811 163.455 226.547 163.425 226.244H164.21C164.245 226.487 164.317 226.692 164.424 226.859C164.531 227.025 164.67 227.152 164.843 227.238C165.018 227.321 165.222 227.363 165.454 227.363C165.65 227.363 165.823 227.328 165.975 227.26C166.127 227.192 166.254 227.094 166.358 226.966C166.462 226.838 166.541 226.683 166.595 226.502C166.651 226.321 166.679 226.117 166.679 225.891C166.679 225.686 166.651 225.496 166.595 225.321C166.538 225.146 166.454 224.993 166.341 224.862C166.231 224.731 166.095 224.63 165.935 224.559C165.774 224.484 165.59 224.447 165.382 224.447C165.106 224.447 164.896 224.484 164.754 224.559C164.614 224.633 164.47 224.734 164.321 224.862ZM172.488 224.189V225.178C172.488 225.71 172.44 226.159 172.345 226.524C172.25 226.89 172.113 227.184 171.935 227.407C171.757 227.63 171.541 227.792 171.289 227.893C171.039 227.991 170.757 228.04 170.442 228.04C170.192 228.04 169.962 228.009 169.751 227.946C169.54 227.884 169.35 227.785 169.18 227.648C169.014 227.508 168.871 227.327 168.752 227.104C168.633 226.881 168.543 226.611 168.48 226.293C168.418 225.975 168.387 225.603 168.387 225.178V224.189C168.387 223.657 168.434 223.211 168.529 222.851C168.627 222.492 168.766 222.204 168.944 221.987C169.122 221.767 169.336 221.609 169.586 221.514C169.838 221.419 170.121 221.371 170.433 221.371C170.685 221.371 170.917 221.403 171.128 221.465C171.342 221.524 171.532 221.621 171.699 221.755C171.865 221.886 172.006 222.061 172.122 222.281C172.241 222.498 172.332 222.764 172.394 223.079C172.457 223.394 172.488 223.764 172.488 224.189ZM171.659 225.312V224.05C171.659 223.759 171.641 223.504 171.605 223.284C171.572 223.061 171.523 222.871 171.458 222.713C171.393 222.556 171.309 222.428 171.208 222.33C171.11 222.232 170.996 222.16 170.865 222.116C170.737 222.068 170.593 222.045 170.433 222.045C170.237 222.045 170.063 222.082 169.911 222.156C169.76 222.227 169.632 222.342 169.528 222.499C169.427 222.657 169.35 222.863 169.296 223.119C169.243 223.374 169.216 223.685 169.216 224.05V225.312C169.216 225.603 169.232 225.86 169.265 226.083C169.3 226.306 169.352 226.499 169.421 226.663C169.489 226.823 169.572 226.955 169.67 227.059C169.769 227.163 169.881 227.241 170.009 227.291C170.14 227.339 170.284 227.363 170.442 227.363C170.644 227.363 170.821 227.324 170.972 227.247C171.124 227.169 171.25 227.049 171.351 226.886C171.455 226.719 171.532 226.507 171.583 226.248C171.633 225.987 171.659 225.675 171.659 225.312Z" fill="#333333"/>
<path d="M217.076 221.461V221.924L214.388 227.951H213.518L216.202 222.138H212.689V221.461H217.076ZM219.059 224.862L218.4 224.692L218.725 221.461H222.055V222.223H219.425L219.229 223.988C219.348 223.92 219.498 223.856 219.679 223.796C219.863 223.737 220.074 223.707 220.312 223.707C220.612 223.707 220.881 223.759 221.119 223.863C221.356 223.964 221.559 224.11 221.725 224.3C221.894 224.49 222.024 224.719 222.113 224.987C222.202 225.254 222.247 225.553 222.247 225.883C222.247 226.195 222.203 226.481 222.117 226.743C222.034 227.004 221.908 227.233 221.738 227.429C221.569 227.623 221.355 227.773 221.096 227.88C220.841 227.987 220.539 228.04 220.192 228.04C219.93 228.04 219.682 228.004 219.447 227.933C219.215 227.859 219.007 227.747 218.823 227.599C218.642 227.447 218.493 227.26 218.377 227.037C218.264 226.811 218.193 226.547 218.163 226.244H218.948C218.983 226.487 219.055 226.692 219.162 226.859C219.269 227.025 219.408 227.152 219.581 227.238C219.756 227.321 219.96 227.363 220.192 227.363C220.388 227.363 220.562 227.328 220.713 227.26C220.865 227.192 220.992 227.094 221.096 226.966C221.2 226.838 221.279 226.683 221.333 226.502C221.389 226.321 221.417 226.117 221.417 225.891C221.417 225.686 221.389 225.496 221.333 225.321C221.276 225.146 221.192 224.993 221.079 224.862C220.969 224.731 220.833 224.63 220.673 224.559C220.512 224.484 220.328 224.447 220.12 224.447C219.844 224.447 219.634 224.484 219.492 224.559C219.352 224.633 219.208 224.734 219.059 224.862Z" fill="#333333"/>
<path d="M262.844 221.425V227.951H262.019V222.455L260.357 223.061V222.316L262.715 221.425H262.844ZM269.343 224.189V225.178C269.343 225.71 269.296 226.159 269.201 226.524C269.106 226.89 268.969 227.184 268.791 227.407C268.612 227.63 268.397 227.792 268.144 227.893C267.895 227.991 267.612 228.04 267.297 228.04C267.048 228.04 266.817 228.009 266.606 227.946C266.395 227.884 266.205 227.785 266.036 227.648C265.869 227.508 265.727 227.327 265.608 227.104C265.489 226.881 265.398 226.611 265.336 226.293C265.274 225.975 265.242 225.603 265.242 225.178V224.189C265.242 223.657 265.29 223.211 265.385 222.851C265.483 222.492 265.621 222.204 265.8 221.987C265.978 221.767 266.192 221.609 266.441 221.514C266.694 221.419 266.976 221.371 267.288 221.371C267.541 221.371 267.773 221.403 267.984 221.465C268.198 221.524 268.388 221.621 268.554 221.755C268.721 221.886 268.862 222.061 268.978 222.281C269.097 222.498 269.187 222.764 269.25 223.079C269.312 223.394 269.343 223.764 269.343 224.189ZM268.514 225.312V224.05C268.514 223.759 268.496 223.504 268.461 223.284C268.428 223.061 268.379 222.871 268.314 222.713C268.248 222.556 268.165 222.428 268.064 222.33C267.966 222.232 267.852 222.16 267.721 222.116C267.593 222.068 267.449 222.045 267.288 222.045C267.092 222.045 266.918 222.082 266.767 222.156C266.615 222.227 266.488 222.342 266.384 222.499C266.283 222.657 266.205 222.863 266.152 223.119C266.098 223.374 266.072 223.685 266.072 224.05V225.312C266.072 225.603 266.088 225.86 266.121 226.083C266.156 226.306 266.208 226.499 266.277 226.663C266.345 226.823 266.428 226.955 266.526 227.059C266.624 227.163 266.737 227.241 266.865 227.291C266.996 227.339 267.14 227.363 267.297 227.363C267.499 227.363 267.676 227.324 267.828 227.247C267.979 227.169 268.106 227.049 268.207 226.886C268.311 226.719 268.388 226.507 268.439 226.248C268.489 225.987 268.514 225.675 268.514 225.312ZM274.479 224.189V225.178C274.479 225.71 274.431 226.159 274.336 226.524C274.241 226.89 274.104 227.184 273.926 227.407C273.748 227.63 273.532 227.792 273.28 227.893C273.03 227.991 272.748 228.04 272.433 228.04C272.183 228.04 271.953 228.009 271.742 227.946C271.531 227.884 271.34 227.785 271.171 227.648C271.005 227.508 270.862 227.327 270.743 227.104C270.624 226.881 270.534 226.611 270.471 226.293C270.409 225.975 270.378 225.603 270.378 225.178V224.189C270.378 223.657 270.425 223.211 270.52 222.851C270.618 222.492 270.757 222.204 270.935 221.987C271.113 221.767 271.327 221.609 271.577 221.514C271.829 221.419 272.112 221.371 272.424 221.371C272.676 221.371 272.908 221.403 273.119 221.465C273.333 221.524 273.523 221.621 273.69 221.755C273.856 221.886 273.997 222.061 274.113 222.281C274.232 222.498 274.323 222.764 274.385 223.079C274.447 223.394 274.479 223.764 274.479 224.189ZM273.65 225.312V224.05C273.65 223.759 273.632 223.504 273.596 223.284C273.563 223.061 273.514 222.871 273.449 222.713C273.384 222.556 273.3 222.428 273.199 222.33C273.101 222.232 272.987 222.16 272.856 222.116C272.728 222.068 272.584 222.045 272.424 222.045C272.228 222.045 272.054 222.082 271.902 222.156C271.751 222.227 271.623 222.342 271.519 222.499C271.418 222.657 271.34 222.863 271.287 223.119C271.233 223.374 271.207 223.685 271.207 224.05V225.312C271.207 225.603 271.223 225.86 271.256 226.083C271.291 226.306 271.343 226.499 271.412 226.663C271.48 226.823 271.563 226.955 271.661 227.059C271.759 227.163 271.872 227.241 272 227.291C272.131 227.339 272.275 227.363 272.433 227.363C272.635 227.363 272.811 227.324 272.963 227.247C273.115 227.169 273.241 227.049 273.342 226.886C273.446 226.719 273.523 226.507 273.574 226.248C273.624 225.987 273.65 225.675 273.65 225.312Z" fill="#333333"/>
<path d="M68.4937 35.8319C68.4937 31.6302 71.8998 28.2241 76.1014 28.2241H140.006C144.208 28.2241 147.614 31.6302 147.614 35.8319C147.614 40.0335 144.208 43.4396 140.006 43.4396H76.1014C71.8997 43.4396 68.4937 40.0335 68.4937 35.8319Z" fill="#0263FF"/>
<path d="M68.4937 106.584C68.4937 102.382 71.8998 98.9761 76.1014 98.9761H235.864C240.066 98.9761 243.472 102.382 243.472 106.584C243.472 110.785 240.066 114.192 235.864 114.192H76.1014C71.8998 114.192 68.4937 110.785 68.4937 106.584Z" fill="#FF7723"/>
<path d="M68.4937 178.097C68.4937 173.895 71.8998 170.489 76.1014 170.489H180.328C184.529 170.489 187.935 173.895 187.935 178.097C187.935 182.298 184.529 185.704 180.328 185.704H76.1014C71.8998 185.704 68.4937 182.298 68.4937 178.097Z" fill="#8E30FF"/>
<path d="M156.892 36.9417V37.6193H152.203V37.1334L155.109 32.6356H155.782L155.06 33.9373L153.139 36.9417H156.892ZM155.987 32.6356V39.126H155.162V32.6356H155.987ZM161.715 35.3637V36.3533C161.715 36.8853 161.668 37.334 161.573 37.6995C161.477 38.0651 161.341 38.3593 161.162 38.5821C160.984 38.805 160.769 38.967 160.516 39.068C160.266 39.1661 159.984 39.2151 159.669 39.2151C159.42 39.2151 159.189 39.1839 158.978 39.1215C158.767 39.0591 158.577 38.9596 158.408 38.8229C158.241 38.6832 158.099 38.5019 157.98 38.279C157.861 38.0561 157.77 37.7857 157.708 37.4677C157.645 37.1497 157.614 36.7783 157.614 36.3533V35.3637C157.614 34.8318 157.662 34.386 157.757 34.0264C157.855 33.6668 157.993 33.3786 158.171 33.1616C158.35 32.9417 158.564 32.7842 158.813 32.6891C159.066 32.594 159.348 32.5465 159.66 32.5465C159.913 32.5465 160.145 32.5777 160.356 32.6401C160.57 32.6995 160.76 32.7961 160.926 32.9298C161.093 33.0606 161.234 33.2359 161.35 33.4558C161.469 33.6728 161.559 33.9387 161.622 34.2538C161.684 34.5688 161.715 34.9387 161.715 35.3637ZM160.886 36.487V35.2255C160.886 34.9343 160.868 34.6787 160.833 34.4588C160.8 34.2359 160.751 34.0457 160.685 33.8882C160.62 33.7307 160.537 33.6029 160.436 33.5049C160.338 33.4068 160.223 33.3355 160.093 33.2909C159.965 33.2433 159.821 33.2196 159.66 33.2196C159.464 33.2196 159.29 33.2567 159.139 33.331C158.987 33.4023 158.859 33.5167 158.755 33.6743C158.654 33.8318 158.577 34.0383 158.524 34.2939C158.47 34.5494 158.443 34.86 158.443 35.2255V36.487C158.443 36.7783 158.46 37.0353 158.492 37.2582C158.528 37.4811 158.58 37.6743 158.648 37.8377C158.717 37.9982 158.8 38.1304 158.898 38.2344C158.996 38.3385 159.109 38.4157 159.237 38.4662C159.368 38.5138 159.512 38.5376 159.669 38.5376C159.871 38.5376 160.048 38.4989 160.2 38.4217C160.351 38.3444 160.477 38.224 160.579 38.0606C160.683 37.8942 160.76 37.6817 160.81 37.4231C160.861 37.1616 160.886 36.8496 160.886 36.487Z" fill="#333333"/>
<path d="M252.201 108.122C252.201 108.517 252.108 108.853 251.924 109.129C251.743 109.403 251.496 109.611 251.184 109.753C250.875 109.896 250.526 109.967 250.137 109.967C249.747 109.967 249.397 109.896 249.085 109.753C248.773 109.611 248.526 109.403 248.345 109.129C248.163 108.853 248.073 108.517 248.073 108.122C248.073 107.863 248.122 107.627 248.22 107.413C248.321 107.196 248.462 107.007 248.643 106.847C248.828 106.686 249.045 106.563 249.294 106.477C249.547 106.388 249.825 106.343 250.128 106.343C250.526 106.343 250.881 106.42 251.193 106.575C251.505 106.726 251.75 106.936 251.929 107.203C252.11 107.471 252.201 107.777 252.201 108.122ZM251.371 108.104C251.371 107.863 251.319 107.651 251.215 107.466C251.111 107.279 250.966 107.134 250.779 107.03C250.591 106.926 250.374 106.874 250.128 106.874C249.875 106.874 249.657 106.926 249.473 107.03C249.291 107.134 249.15 107.279 249.049 107.466C248.948 107.651 248.897 107.863 248.897 108.104C248.897 108.354 248.947 108.567 249.045 108.746C249.146 108.921 249.288 109.056 249.473 109.151C249.66 109.244 249.881 109.29 250.137 109.29C250.392 109.29 250.612 109.244 250.796 109.151C250.981 109.056 251.122 108.921 251.22 108.746C251.321 108.567 251.371 108.354 251.371 108.104ZM252.049 105.077C252.049 105.392 251.966 105.676 251.799 105.929C251.633 106.181 251.406 106.38 251.117 106.526C250.829 106.672 250.502 106.744 250.137 106.744C249.765 106.744 249.434 106.672 249.143 106.526C248.854 106.38 248.629 106.181 248.465 105.929C248.302 105.676 248.22 105.392 248.22 105.077C248.22 104.7 248.302 104.379 248.465 104.114C248.632 103.85 248.859 103.648 249.147 103.508C249.435 103.368 249.764 103.299 250.132 103.299C250.504 103.299 250.834 103.368 251.122 103.508C251.41 103.648 251.636 103.85 251.799 104.114C251.966 104.379 252.049 104.7 252.049 105.077ZM251.224 105.091C251.224 104.874 251.178 104.682 251.086 104.515C250.994 104.349 250.866 104.218 250.703 104.123C250.539 104.025 250.349 103.976 250.132 103.976C249.915 103.976 249.725 104.022 249.562 104.114C249.401 104.203 249.275 104.331 249.183 104.498C249.094 104.664 249.049 104.862 249.049 105.091C249.049 105.313 249.094 105.508 249.183 105.674C249.275 105.841 249.403 105.97 249.566 106.062C249.73 106.154 249.92 106.2 250.137 106.2C250.354 106.2 250.542 106.154 250.703 106.062C250.866 105.97 250.994 105.841 251.086 105.674C251.178 105.508 251.224 105.313 251.224 105.091ZM257.336 108.122C257.336 108.517 257.244 108.853 257.059 109.129C256.878 109.403 256.632 109.611 256.319 109.753C256.01 109.896 255.661 109.967 255.272 109.967C254.883 109.967 254.532 109.896 254.22 109.753C253.908 109.611 253.661 109.403 253.48 109.129C253.299 108.853 253.208 108.517 253.208 108.122C253.208 107.863 253.257 107.627 253.355 107.413C253.456 107.196 253.597 107.007 253.779 106.847C253.963 106.686 254.18 106.563 254.429 106.477C254.682 106.388 254.96 106.343 255.263 106.343C255.661 106.343 256.016 106.42 256.328 106.575C256.64 106.726 256.886 106.936 257.064 107.203C257.245 107.471 257.336 107.777 257.336 108.122ZM256.507 108.104C256.507 107.863 256.455 107.651 256.351 107.466C256.247 107.279 256.101 107.134 255.914 107.03C255.727 106.926 255.51 106.874 255.263 106.874C255.01 106.874 254.792 106.926 254.608 107.03C254.426 107.134 254.285 107.279 254.184 107.466C254.083 107.651 254.033 107.863 254.033 108.104C254.033 108.354 254.082 108.567 254.18 108.746C254.281 108.921 254.423 109.056 254.608 109.151C254.795 109.244 255.016 109.29 255.272 109.29C255.528 109.29 255.747 109.244 255.932 109.151C256.116 109.056 256.257 108.921 256.355 108.746C256.456 108.567 256.507 108.354 256.507 108.104ZM257.184 105.077C257.184 105.392 257.101 105.676 256.935 105.929C256.768 106.181 256.541 106.38 256.253 106.526C255.964 106.672 255.637 106.744 255.272 106.744C254.9 106.744 254.569 106.672 254.278 106.526C253.99 106.38 253.764 106.181 253.6 105.929C253.437 105.676 253.355 105.392 253.355 105.077C253.355 104.7 253.437 104.379 253.6 104.114C253.767 103.85 253.994 103.648 254.282 103.508C254.571 103.368 254.899 103.299 255.267 103.299C255.639 103.299 255.969 103.368 256.257 103.508C256.545 103.648 256.771 103.85 256.935 104.114C257.101 104.379 257.184 104.7 257.184 105.077ZM256.36 105.091C256.36 104.874 256.314 104.682 256.221 104.515C256.129 104.349 256.002 104.218 255.838 104.123C255.675 104.025 255.484 103.976 255.267 103.976C255.051 103.976 254.86 104.022 254.697 104.114C254.536 104.203 254.41 104.331 254.318 104.498C254.229 104.664 254.184 104.862 254.184 105.091C254.184 105.313 254.229 105.508 254.318 105.674C254.41 105.841 254.538 105.97 254.701 106.062C254.865 106.154 255.055 106.2 255.272 106.2C255.489 106.2 255.678 106.154 255.838 106.062C256.002 105.97 256.129 105.841 256.221 105.674C256.314 105.508 256.36 105.313 256.36 105.091Z" fill="#333333"/>
<path d="M195.505 174.892H195.576V175.591H195.505C195.068 175.591 194.702 175.663 194.408 175.805C194.114 175.945 193.881 176.134 193.708 176.372C193.536 176.606 193.411 176.871 193.334 177.165C193.26 177.459 193.223 177.758 193.223 178.061V179.015C193.223 179.303 193.257 179.559 193.325 179.782C193.393 180.002 193.487 180.187 193.606 180.339C193.725 180.49 193.858 180.605 194.007 180.682C194.159 180.759 194.316 180.798 194.48 180.798C194.67 180.798 194.839 180.762 194.988 180.691C195.136 180.617 195.261 180.514 195.362 180.383C195.466 180.25 195.545 180.092 195.598 179.911C195.652 179.73 195.679 179.531 195.679 179.314C195.679 179.12 195.655 178.935 195.607 178.756C195.56 178.575 195.487 178.415 195.389 178.275C195.291 178.132 195.168 178.021 195.019 177.941C194.873 177.857 194.7 177.816 194.497 177.816C194.269 177.816 194.055 177.872 193.856 177.985C193.659 178.095 193.497 178.241 193.37 178.422C193.245 178.6 193.173 178.795 193.156 179.006L192.719 179.002C192.76 178.669 192.838 178.385 192.951 178.15C193.067 177.912 193.209 177.719 193.379 177.571C193.551 177.419 193.743 177.309 193.954 177.241C194.168 177.169 194.393 177.134 194.631 177.134C194.955 177.134 195.234 177.195 195.469 177.317C195.704 177.438 195.897 177.602 196.049 177.807C196.2 178.009 196.312 178.238 196.383 178.493C196.457 178.746 196.494 179.006 196.494 179.273C196.494 179.58 196.451 179.866 196.365 180.134C196.279 180.401 196.15 180.636 195.977 180.838C195.808 181.04 195.598 181.198 195.349 181.311C195.099 181.424 194.809 181.48 194.48 181.48C194.129 181.48 193.823 181.409 193.561 181.266C193.3 181.12 193.083 180.927 192.91 180.687C192.738 180.446 192.609 180.178 192.523 179.884C192.436 179.59 192.393 179.291 192.393 178.988V178.6C192.393 178.143 192.439 177.694 192.532 177.254C192.624 176.814 192.783 176.416 193.009 176.06C193.237 175.703 193.554 175.419 193.958 175.208C194.362 174.997 194.878 174.892 195.505 174.892ZM201.549 177.629V178.618C201.549 179.15 201.502 179.599 201.407 179.964C201.312 180.33 201.175 180.624 200.997 180.847C200.818 181.07 200.603 181.232 200.35 181.333C200.101 181.431 199.818 181.48 199.503 181.48C199.254 181.48 199.023 181.449 198.812 181.386C198.601 181.324 198.411 181.224 198.242 181.088C198.075 180.948 197.933 180.767 197.814 180.544C197.695 180.321 197.604 180.051 197.542 179.733C197.48 179.415 197.448 179.043 197.448 178.618V177.629C197.448 177.097 197.496 176.651 197.591 176.291C197.689 175.932 197.827 175.643 198.006 175.427C198.184 175.207 198.398 175.049 198.648 174.954C198.9 174.859 199.182 174.811 199.494 174.811C199.747 174.811 199.979 174.843 200.19 174.905C200.404 174.964 200.594 175.061 200.76 175.195C200.927 175.325 201.068 175.501 201.184 175.721C201.303 175.938 201.393 176.204 201.456 176.519C201.518 176.834 201.549 177.204 201.549 177.629ZM200.72 178.752V177.49C200.72 177.199 200.702 176.944 200.667 176.724C200.634 176.501 200.585 176.311 200.52 176.153C200.454 175.996 200.371 175.868 200.27 175.77C200.172 175.672 200.058 175.6 199.927 175.556C199.799 175.508 199.655 175.484 199.494 175.484C199.298 175.484 199.124 175.522 198.973 175.596C198.821 175.667 198.694 175.782 198.59 175.939C198.489 176.097 198.411 176.303 198.358 176.559C198.304 176.814 198.278 177.125 198.278 177.49V178.752C198.278 179.043 198.294 179.3 198.327 179.523C198.362 179.746 198.414 179.939 198.483 180.103C198.551 180.263 198.634 180.395 198.732 180.499C198.83 180.603 198.943 180.681 199.071 180.731C199.202 180.779 199.346 180.802 199.503 180.802C199.705 180.802 199.882 180.764 200.034 180.687C200.185 180.609 200.312 180.489 200.413 180.325C200.517 180.159 200.594 179.947 200.645 179.688C200.695 179.427 200.72 179.114 200.72 178.752Z" fill="#333333"/>
</svg>
