<svg width="37" height="21" viewBox="0 0 37 21" fill="none" xmlns="http://www.w3.org/2000/svg">
<path d="M7.8284 13.3943C7.14027 13.3943 6.46758 13.5983 5.89542 13.9807C5.32325 14.363 4.87731 14.9063 4.61397 15.5421C4.35063 16.1779 4.28173 16.8774 4.41598 17.5523C4.55022 18.2273 4.88159 18.8472 5.36818 19.3338C5.85477 19.8204 6.47472 20.1517 7.14963 20.286C7.82454 20.4202 8.52411 20.3513 9.15987 20.088C9.79562 19.8247 10.339 19.3787 10.7213 18.8066C11.1036 18.2344 11.3077 17.5617 11.3077 16.8736C11.3066 15.9511 10.9397 15.0668 10.2875 14.4145C9.6352 13.7622 8.75084 13.3953 7.8284 13.3943ZM7.8284 18.6132C7.48434 18.6132 7.14799 18.5112 6.86191 18.32C6.57583 18.1289 6.35285 17.8572 6.22119 17.5393C6.08952 17.2214 6.05507 16.8716 6.12219 16.5342C6.18931 16.1967 6.355 15.8868 6.59829 15.6435C6.84159 15.4002 7.15156 15.2345 7.48902 15.1674C7.82647 15.1002 8.17626 15.1347 8.49414 15.2664C8.81201 15.398 9.08371 15.621 9.27486 15.9071C9.46602 16.1932 9.56804 16.5295 9.56804 16.8736C9.56804 17.335 9.38476 17.7774 9.05852 18.1037C8.73227 18.4299 8.28979 18.6132 7.8284 18.6132Z" fill="#466153"/>
<path d="M36.3863 4.7934L34.3251 1.70148C34.1665 1.46294 33.9513 1.26737 33.6987 1.13219C33.4462 0.997017 33.1641 0.926441 32.8776 0.926759H1.73964C1.27842 0.927296 0.836252 1.11075 0.510122 1.43688C0.183993 1.76301 0.000537147 2.20518 0 2.6664V13.6841H4.87571C5.67824 12.9387 6.73304 12.5244 7.82838 12.5244C8.92372 12.5244 9.97853 12.9387 10.7811 13.6841H25.7514C26.5539 12.9387 27.6087 12.5244 28.7041 12.5244C29.7994 12.5244 30.8542 12.9387 31.6568 13.6841H36.5325V5.27586C36.5325 5.10414 36.4816 4.93626 36.3863 4.7934ZM14.2071 6.72556C14.2071 6.95625 14.1154 7.17749 13.9523 7.34062C13.7892 7.50374 13.5679 7.59538 13.3372 7.59538H4.3491C4.11841 7.59538 3.89717 7.50374 3.73405 7.34062C3.57092 7.17749 3.47928 6.95625 3.47928 6.72556V3.10131C3.47928 2.87062 3.57092 2.64938 3.73405 2.48625C3.89717 2.32313 4.11841 2.23149 4.3491 2.23149H13.3372C13.5679 2.23149 13.7892 2.32313 13.9523 2.48625C14.1154 2.64938 14.2071 2.87062 14.2071 3.10131V6.72556ZM26.9644 6.72556C26.9644 6.95625 26.8728 7.17749 26.7097 7.34062C26.5465 7.50374 26.3253 7.59538 26.0946 7.59538H16.8165C16.5858 7.59538 16.3646 7.50374 16.2015 7.34062C16.0384 7.17749 15.9467 6.95625 15.9467 6.72556V3.10131C15.9467 2.87062 16.0384 2.64938 16.2015 2.48625C16.3646 2.32313 16.5858 2.23149 16.8165 2.23149H26.0946C26.3253 2.23149 26.5465 2.32313 26.7097 2.48625C26.8728 2.64938 26.9644 2.87062 26.9644 3.10131V6.72556ZM35.0828 10.734C34.9919 10.7661 31.8934 10.7847 31.8934 10.7847C31.6627 10.7847 31.4415 10.6931 31.2784 10.53C31.1152 10.3668 31.0236 10.1456 31.0236 9.9149V3.10131C31.0236 2.87062 31.1152 2.64938 31.2784 2.48625C31.4415 2.32313 31.6627 2.23149 31.8934 2.23149H32.9388L34.9366 4.7934C35.0319 4.93626 35.0828 5.10414 35.0828 5.27586V10.734Z" fill="#466153"/>
<path d="M33.0531 16.8735C33.0537 17.5811 32.8806 18.2781 32.5488 18.9031H34.7927C35.254 18.9026 35.6961 18.7191 36.0223 18.393C36.3484 18.0669 36.5319 17.6247 36.5324 17.1635V15.4238H32.8038C32.969 15.8893 33.0533 16.3796 33.0531 16.8735Z" fill="#466153"/>
<path d="M3.72863 15.4238H0V17.1635C0.000537146 17.6247 0.183993 18.0669 0.510122 18.393C0.836252 18.7191 1.27842 18.9026 1.73964 18.9031H3.98356C3.70253 18.3724 3.53476 17.7891 3.49088 17.1902C3.447 16.5913 3.52796 15.9898 3.72863 15.4238Z" fill="#466153"/>
<path d="M24.6042 15.4238H11.928C12.1287 15.9898 12.2097 16.5913 12.1658 17.1902C12.1219 17.7891 11.9541 18.3724 11.6731 18.9031H24.8591C24.5781 18.3724 24.4103 17.7891 24.3665 17.1902C24.3226 16.5913 24.4035 15.9898 24.6042 15.4238Z" fill="#466153"/>
<path d="M28.7041 13.3943C28.016 13.3943 27.3433 13.5983 26.7712 13.9807C26.199 14.363 25.753 14.9063 25.4897 15.5421C25.2264 16.1779 25.1575 16.8774 25.2917 17.5523C25.426 18.2273 25.7573 18.8472 26.2439 19.3338C26.7305 19.8204 27.3504 20.1517 28.0254 20.286C28.7003 20.4202 29.3998 20.3513 30.0356 20.088C30.6714 19.8247 31.2147 19.3787 31.5971 18.8066C31.9794 18.2344 32.1834 17.5617 32.1834 16.8736C32.1824 15.9511 31.8155 15.0668 31.1632 14.4145C30.5109 13.7622 29.6266 13.3953 28.7041 13.3943ZM28.7041 18.6132C28.3601 18.6132 28.0237 18.5112 27.7376 18.32C27.4516 18.1289 27.2286 17.8572 27.0969 17.5393C26.9653 17.2214 26.9308 16.8716 26.9979 16.5342C27.065 16.1967 27.2307 15.8868 27.474 15.6435C27.7173 15.4002 28.0273 15.2345 28.3648 15.1674C28.7022 15.1002 29.052 15.1347 29.3699 15.2664C29.6877 15.398 29.9594 15.621 30.1506 15.9071C30.3417 16.1932 30.4438 16.5295 30.4438 16.8736C30.4438 17.335 30.2605 17.7774 29.9342 18.1037C29.608 18.4299 29.1655 18.6132 28.7041 18.6132Z" fill="#466153"/>
</svg>
