<svg width="574" height="245" viewBox="0 0 574 245" fill="none" xmlns="http://www.w3.org/2000/svg">
<path d="M22.7947 228.315H572" stroke="#CCCCCC" stroke-width="0.735314" stroke-dasharray="2.94 1.47"/>
<path d="M22.7947 172.615H572" stroke="#CCCCCC" stroke-width="0.735314" stroke-dasharray="2.94 1.47"/>
<path d="M22.7947 116.915H572" stroke="#CCCCCC" stroke-width="0.735314" stroke-dasharray="2.94 1.47"/>
<path d="M22.7947 61.215H572" stroke="#CCCCCC" stroke-width="0.735314" stroke-dasharray="2.94 1.47"/>
<path d="M23.1626 5.14722V228.683" stroke="#CCCCCC" stroke-width="0.735314" stroke-dasharray="2.94 1.47"/>
<path d="M14.7903 227.164V228.12C14.7903 228.634 14.7444 229.068 14.6525 229.421C14.5606 229.775 14.4284 230.059 14.2561 230.275C14.0838 230.49 13.8755 230.647 13.6314 230.744C13.3901 230.839 13.1172 230.886 12.8127 230.886C12.5715 230.886 12.3489 230.856 12.1449 230.796C11.941 230.736 11.7572 230.639 11.5934 230.507C11.4326 230.372 11.2947 230.197 11.1798 229.982C11.0649 229.766 10.9773 229.505 10.917 229.197C10.8567 228.89 10.8265 228.531 10.8265 228.12V227.164C10.8265 226.65 10.8725 226.219 10.9644 225.871C11.0592 225.524 11.1928 225.245 11.3651 225.035C11.5374 224.823 11.7442 224.671 11.9855 224.579C12.2297 224.487 12.5025 224.441 12.8041 224.441C13.0483 224.441 13.2723 224.471 13.4763 224.531C13.6831 224.589 13.8669 224.682 14.0277 224.811C14.1886 224.938 14.325 225.107 14.437 225.32C14.5519 225.529 14.6395 225.787 14.6999 226.091C14.7602 226.395 14.7903 226.753 14.7903 227.164ZM13.989 228.25V227.03C13.989 226.749 13.9717 226.502 13.9373 226.289C13.9057 226.074 13.8583 225.89 13.7951 225.738C13.7319 225.585 13.6515 225.462 13.5538 225.367C13.459 225.272 13.3484 225.203 13.2221 225.16C13.0985 225.114 12.9592 225.091 12.8041 225.091C12.6146 225.091 12.4465 225.127 12.3 225.199C12.1536 225.268 12.03 225.379 11.9295 225.531C11.8319 225.683 11.7572 225.883 11.7055 226.13C11.6538 226.377 11.6279 226.677 11.6279 227.03V228.25C11.6279 228.531 11.6437 228.779 11.6753 228.995C11.7098 229.21 11.76 229.397 11.8261 229.555C11.8922 229.71 11.9726 229.838 12.0674 229.938C12.1622 230.039 12.2713 230.114 12.3948 230.163C12.5212 230.208 12.6605 230.231 12.8127 230.231C13.0081 230.231 13.179 230.194 13.3255 230.119C13.4719 230.045 13.594 229.928 13.6917 229.77C13.7922 229.61 13.8669 229.404 13.9157 229.154C13.9645 228.902 13.989 228.6 13.989 228.25Z" fill="#333333"/>
<path d="M9.85185 174.445V175.1H5.74587V174.527L7.80101 172.239C8.05378 171.958 8.24909 171.719 8.38697 171.524C8.52771 171.326 8.62537 171.149 8.67994 170.994C8.73739 170.836 8.76611 170.675 8.76611 170.512C8.76611 170.305 8.72303 170.118 8.63686 169.951C8.55356 169.782 8.43005 169.647 8.26633 169.546C8.10261 169.446 7.90442 169.396 7.67176 169.396C7.39314 169.396 7.16048 169.45 6.97378 169.559C6.78995 169.666 6.65208 169.815 6.56017 170.007C6.46825 170.2 6.4223 170.421 6.4223 170.671H5.62523C5.62523 170.318 5.70278 169.995 5.85789 169.702C6.01299 169.409 6.24278 169.176 6.54724 169.004C6.85171 168.828 7.22655 168.741 7.67176 168.741C8.06814 168.741 8.40707 168.811 8.68856 168.952C8.97005 169.09 9.18547 169.285 9.33483 169.538C9.48706 169.788 9.56318 170.081 9.56318 170.417C9.56318 170.601 9.53159 170.787 9.46839 170.977C9.40808 171.164 9.32334 171.35 9.21419 171.537C9.10792 171.724 8.98297 171.908 8.83936 172.088C8.69861 172.269 8.54782 172.448 8.38697 172.623L6.70666 174.445H9.85185ZM11.7131 172.114L11.0755 171.951L11.39 168.827H14.6084V169.564H12.0664L11.8768 171.27C11.9917 171.204 12.1368 171.142 12.312 171.085C12.4901 171.027 12.694 170.998 12.9238 170.998C13.2139 170.998 13.4738 171.049 13.7036 171.149C13.9334 171.247 14.1287 171.388 14.2896 171.571C14.4533 171.755 14.5783 171.976 14.6644 172.235C14.7506 172.493 14.7937 172.782 14.7937 173.101C14.7937 173.403 14.752 173.68 14.6687 173.932C14.5883 174.185 14.4662 174.406 14.3025 174.596C14.1388 174.783 13.932 174.928 13.6821 175.031C13.4351 175.135 13.1435 175.186 12.8075 175.186C12.5547 175.186 12.3149 175.152 12.088 175.083C11.8639 175.011 11.6628 174.903 11.4848 174.76C11.3096 174.613 11.1659 174.432 11.0539 174.217C10.9448 173.999 10.8758 173.743 10.8471 173.45H11.6054C11.6399 173.685 11.7088 173.884 11.8122 174.045C11.9156 174.205 12.0506 174.327 12.2172 174.411C12.3867 174.491 12.5834 174.531 12.8075 174.531C12.997 174.531 13.1651 174.498 13.3116 174.432C13.458 174.366 13.5816 174.271 13.6821 174.148C13.7826 174.024 13.8587 173.875 13.9104 173.7C13.965 173.525 13.9923 173.328 13.9923 173.11C13.9923 172.911 13.965 172.728 13.9104 172.558C13.8559 172.389 13.774 172.241 13.6649 172.114C13.5586 171.988 13.4279 171.89 13.2728 171.821C13.1177 171.75 12.9396 171.714 12.7385 171.714C12.4714 171.714 12.2689 171.75 12.131 171.821C11.996 171.893 11.8567 171.991 11.7131 172.114Z" fill="#333333"/>
<path d="M6.74974 116.414L6.11209 116.251L6.42661 113.127H9.64504V113.864H7.10304L6.91346 115.57C7.02836 115.504 7.17341 115.442 7.34862 115.385C7.5267 115.327 7.73064 115.298 7.96043 115.298C8.25053 115.298 8.51047 115.349 8.74026 115.449C8.97005 115.547 9.16536 115.688 9.32621 115.871C9.48994 116.055 9.61488 116.276 9.70105 116.535C9.78722 116.794 9.83031 117.082 9.83031 117.401C9.83031 117.703 9.78866 117.98 9.70536 118.233C9.62494 118.485 9.50286 118.706 9.33914 118.896C9.17542 119.083 8.96861 119.228 8.71872 119.331C8.4717 119.435 8.18016 119.486 7.8441 119.486C7.59133 119.486 7.35149 119.452 7.12458 119.383C6.90054 119.311 6.69948 119.203 6.52139 119.06C6.34618 118.913 6.20256 118.732 6.09054 118.517C5.9814 118.299 5.91246 118.043 5.88374 117.75H6.64203C6.6765 117.986 6.74543 118.184 6.84884 118.345C6.95224 118.505 7.08724 118.627 7.25383 118.711C7.4233 118.791 7.62006 118.831 7.8441 118.831C8.03367 118.831 8.2017 118.798 8.34819 118.732C8.49468 118.666 8.61819 118.571 8.71872 118.448C8.81925 118.324 8.89537 118.175 8.94707 118C9.00164 117.825 9.02893 117.628 9.02893 117.41C9.02893 117.211 9.00164 117.028 8.94707 116.858C8.89249 116.689 8.81063 116.541 8.70148 116.414C8.59521 116.288 8.46452 116.19 8.30941 116.121C8.15431 116.05 7.97622 116.014 7.77516 116.014C7.50803 116.014 7.30554 116.05 7.16766 116.121C7.03267 116.193 6.89336 116.291 6.74974 116.414ZM14.6429 115.764V116.72C14.6429 117.234 14.5969 117.668 14.505 118.021C14.4131 118.375 14.281 118.659 14.1086 118.875C13.9363 119.09 13.728 119.246 13.4839 119.344C13.2426 119.439 12.9698 119.486 12.6653 119.486C12.424 119.486 12.2014 119.456 11.9975 119.396C11.7935 119.336 11.6097 119.239 11.446 119.107C11.2851 118.972 11.1473 118.797 11.0324 118.582C10.9175 118.366 10.8299 118.105 10.7696 117.797C10.7092 117.49 10.6791 117.131 10.6791 116.72V115.764C10.6791 115.25 10.725 114.819 10.8169 114.471C10.9117 114.124 11.0453 113.845 11.2176 113.635C11.39 113.423 11.5968 113.271 11.8381 113.179C12.0822 113.087 12.3551 113.041 12.6567 113.041C12.9008 113.041 13.1249 113.071 13.3288 113.131C13.5356 113.189 13.7194 113.282 13.8803 113.411C14.0411 113.538 14.1776 113.707 14.2896 113.92C14.4045 114.129 14.4921 114.387 14.5524 114.691C14.6127 114.995 14.6429 115.353 14.6429 115.764ZM13.8415 116.85V115.63C13.8415 115.349 13.8243 115.102 13.7898 114.889C13.7582 114.674 13.7108 114.49 13.6476 114.338C13.5844 114.185 13.504 114.062 13.4063 113.967C13.3116 113.872 13.201 113.803 13.0746 113.76C12.9511 113.714 12.8118 113.691 12.6567 113.691C12.4671 113.691 12.2991 113.727 12.1526 113.799C12.0061 113.868 11.8826 113.979 11.782 114.131C11.6844 114.283 11.6097 114.483 11.558 114.73C11.5063 114.977 11.4805 115.277 11.4805 115.63V116.85C11.4805 117.131 11.4963 117.379 11.5278 117.595C11.5623 117.81 11.6126 117.997 11.6786 118.155C11.7447 118.31 11.8251 118.438 11.9199 118.538C12.0147 118.639 12.1239 118.714 12.2474 118.762C12.3737 118.808 12.5131 118.831 12.6653 118.831C12.8606 118.831 13.0315 118.794 13.178 118.719C13.3245 118.645 13.4466 118.528 13.5442 118.37C13.6447 118.21 13.7194 118.004 13.7683 117.754C13.8171 117.502 13.8415 117.2 13.8415 116.85Z" fill="#333333"/>
<path d="M9.79584 57.4268V57.8749L7.19782 63.7H6.35767L8.95138 58.0817H5.55629V57.4268H9.79584ZM11.7131 60.7142L11.0755 60.5505L11.39 57.4268H14.6084V58.1636H12.0664L11.8768 59.8697C11.9917 59.8036 12.1368 59.7419 12.312 59.6844C12.4901 59.627 12.694 59.5983 12.9238 59.5983C13.2139 59.5983 13.4738 59.6485 13.7036 59.7491C13.9334 59.8467 14.1287 59.9875 14.2896 60.1713C14.4533 60.3551 14.5783 60.5763 14.6644 60.8348C14.7506 61.0933 14.7937 61.382 14.7937 61.7008C14.7937 62.0024 14.752 62.2796 14.6687 62.5324C14.5883 62.7851 14.4662 63.0063 14.3025 63.1959C14.1388 63.3826 13.932 63.5276 13.6821 63.631C13.4351 63.7344 13.1435 63.7861 12.8075 63.7861C12.5547 63.7861 12.3149 63.7517 12.088 63.6827C11.8639 63.6109 11.6628 63.5032 11.4848 63.3596C11.3096 63.2131 11.1659 63.0321 11.0539 62.8167C10.9448 62.5984 10.8758 62.3428 10.8471 62.0498H11.6054C11.6399 62.2853 11.7088 62.4835 11.8122 62.6444C11.9156 62.8052 12.0506 62.9273 12.2172 63.0106C12.3867 63.091 12.5834 63.1312 12.8075 63.1312C12.997 63.1312 13.1651 63.0982 13.3116 63.0321C13.458 62.9661 13.5816 62.8713 13.6821 62.7478C13.7826 62.6243 13.8587 62.4749 13.9104 62.2997C13.965 62.1245 13.9923 61.9277 13.9923 61.7094C13.9923 61.5112 13.965 61.3274 13.9104 61.1579C13.8559 60.9885 13.774 60.8406 13.6649 60.7142C13.5586 60.5878 13.4279 60.4901 13.2728 60.4212C13.1177 60.3494 12.9396 60.3135 12.7385 60.3135C12.4714 60.3135 12.2689 60.3494 12.131 60.4212C11.996 60.493 11.8567 60.5907 11.7131 60.7142Z" fill="#333333"/>
<path d="M3.25077 1.69238V8H2.4537V2.68764L0.846638 3.2736V2.55408L3.12583 1.69238H3.25077ZM9.53254 4.36364V5.32012C9.53254 5.83427 9.48658 6.26799 9.39467 6.62129C9.30275 6.97458 9.17062 7.25894 8.99829 7.47437C8.82595 7.68979 8.6177 7.84633 8.37356 7.94399C8.13228 8.03878 7.85941 8.08617 7.55494 8.08617C7.31367 8.08617 7.09106 8.05601 6.88713 7.99569C6.68319 7.93537 6.49937 7.83915 6.33564 7.70702C6.17479 7.57202 6.03692 7.39681 5.92203 7.18139C5.80714 6.96596 5.71953 6.70458 5.65921 6.39724C5.59889 6.08991 5.56873 5.73087 5.56873 5.32012V4.36364C5.56873 3.8495 5.61469 3.41865 5.70661 3.0711C5.80139 2.72355 5.93496 2.44493 6.10729 2.23525C6.27963 2.0227 6.48644 1.87047 6.72772 1.77855C6.97186 1.68664 7.24473 1.64068 7.54633 1.64068C7.79047 1.64068 8.01452 1.67084 8.21845 1.73116C8.42526 1.78861 8.60909 1.88196 8.76994 2.01121C8.93079 2.13759 9.06722 2.30706 9.17924 2.51961C9.29413 2.72929 9.38174 2.98636 9.44206 3.29083C9.50238 3.5953 9.53254 3.9529 9.53254 4.36364ZM8.73116 5.44938V4.23008C8.73116 3.94859 8.71393 3.70157 8.67946 3.48902C8.64786 3.2736 8.60047 3.08977 8.53728 2.93753C8.47409 2.7853 8.39366 2.66179 8.296 2.567C8.20122 2.47222 8.09063 2.40328 7.96425 2.3602C7.84074 2.31424 7.70143 2.29126 7.54633 2.29126C7.35675 2.29126 7.18872 2.32717 7.04224 2.39897C6.89575 2.46791 6.77224 2.57849 6.67171 2.73073C6.57405 2.88296 6.49937 3.08259 6.44766 3.32961C6.39596 3.57663 6.37011 3.87678 6.37011 4.23008V5.44938C6.37011 5.73087 6.38591 5.97932 6.41751 6.19475C6.45197 6.41017 6.50224 6.59687 6.5683 6.75485C6.63437 6.90995 6.71479 7.03777 6.80958 7.1383C6.90436 7.23883 7.01351 7.31352 7.13702 7.36234C7.2634 7.4083 7.40271 7.43128 7.55494 7.43128C7.75026 7.43128 7.92117 7.39394 8.06765 7.31926C8.21414 7.24458 8.33622 7.12825 8.43387 6.97027C8.53441 6.80942 8.60909 6.60405 8.65792 6.35416C8.70675 6.1014 8.73116 5.7998 8.73116 5.44938ZM14.4959 4.36364V5.32012C14.4959 5.83427 14.45 6.26799 14.358 6.62129C14.2661 6.97458 14.134 7.25894 13.9617 7.47437C13.7893 7.68979 13.5811 7.84633 13.3369 7.94399C13.0957 8.03878 12.8228 8.08617 12.5183 8.08617C12.277 8.08617 12.0544 8.05601 11.8505 7.99569C11.6466 7.93537 11.4627 7.83915 11.299 7.70702C11.1382 7.57202 11.0003 7.39681 10.8854 7.18139C10.7705 6.96596 10.6829 6.70458 10.6226 6.39724C10.5623 6.08991 10.5321 5.73087 10.5321 5.32012V4.36364C10.5321 3.8495 10.5781 3.41865 10.67 3.0711C10.7648 2.72355 10.8983 2.44493 11.0707 2.23525C11.243 2.0227 11.4498 1.87047 11.6911 1.77855C11.9352 1.68664 12.2081 1.64068 12.5097 1.64068C12.7538 1.64068 12.9779 1.67084 13.1818 1.73116C13.3886 1.78861 13.5725 1.88196 13.7333 2.01121C13.8942 2.13759 14.0306 2.30706 14.1426 2.51961C14.2575 2.72929 14.3451 2.98636 14.4054 3.29083C14.4657 3.5953 14.4959 3.9529 14.4959 4.36364ZM13.6945 5.44938V4.23008C13.6945 3.94859 13.6773 3.70157 13.6428 3.48902C13.6112 3.2736 13.5638 3.08977 13.5006 2.93753C13.4375 2.7853 13.357 2.66179 13.2594 2.567C13.1646 2.47222 13.054 2.40328 12.9276 2.3602C12.8041 2.31424 12.6648 2.29126 12.5097 2.29126C12.3201 2.29126 12.1521 2.32717 12.0056 2.39897C11.8591 2.46791 11.7356 2.57849 11.6351 2.73073C11.5374 2.88296 11.4627 3.08259 11.411 3.32961C11.3593 3.57663 11.3335 3.87678 11.3335 4.23008V5.44938C11.3335 5.73087 11.3493 5.97932 11.3809 6.19475C11.4153 6.41017 11.4656 6.59687 11.5317 6.75485C11.5977 6.90995 11.6782 7.03777 11.7729 7.1383C11.8677 7.23883 11.9769 7.31352 12.1004 7.36234C12.2268 7.4083 12.3661 7.43128 12.5183 7.43128C12.7136 7.43128 12.8845 7.39394 13.031 7.31926C13.1775 7.24458 13.2996 7.12825 13.3972 6.97027C13.4978 6.80942 13.5725 6.60405 13.6213 6.35416C13.6701 6.1014 13.6945 5.7998 13.6945 5.44938Z" fill="#333333"/>
<path d="M19.3912 239.929V234.906H20.3266V239.929C20.3266 240.397 20.2308 240.792 20.0391 241.113C19.8475 241.435 19.5828 241.68 19.245 241.849C18.9105 242.015 18.5256 242.097 18.0903 242.097C17.6551 242.097 17.2686 242.023 16.9308 241.873C16.593 241.724 16.3283 241.497 16.1367 241.191C15.945 240.886 15.8492 240.501 15.8492 240.037H16.7895C16.7895 240.335 16.8447 240.581 16.9552 240.772C17.0656 240.964 17.2182 241.105 17.4131 241.196C17.6113 241.287 17.837 241.333 18.0903 241.333C18.3372 241.333 18.558 241.281 18.7529 241.177C18.9511 241.069 19.107 240.912 19.2206 240.704C19.3343 240.493 19.3912 240.235 19.3912 239.929ZM24.8917 241.099V238.385C24.8917 238.177 24.8494 237.997 24.765 237.844C24.6838 237.688 24.5604 237.568 24.3947 237.484C24.2291 237.399 24.0244 237.357 23.7808 237.357C23.5535 237.357 23.3537 237.396 23.1816 237.474C23.0127 237.552 22.8795 237.654 22.7821 237.781C22.6879 237.908 22.6408 238.044 22.6408 238.19H21.7395C21.7395 238.002 21.7882 237.815 21.8856 237.63C21.9831 237.445 22.1227 237.277 22.3046 237.128C22.4898 236.975 22.7106 236.855 22.9672 236.767C23.2271 236.677 23.5161 236.631 23.8344 236.631C24.2177 236.631 24.5555 236.696 24.8478 236.826C25.1434 236.956 25.374 237.152 25.5396 237.415C25.7085 237.675 25.793 238.002 25.793 238.395V240.85C25.793 241.026 25.8076 241.212 25.8368 241.41C25.8693 241.609 25.9164 241.779 25.9781 241.922V242H25.0378C24.9923 241.896 24.9566 241.758 24.9306 241.586C24.9046 241.41 24.8917 241.248 24.8917 241.099ZM25.0476 238.804L25.0573 239.437H24.1462C23.8896 239.437 23.6607 239.458 23.4593 239.501C23.2579 239.54 23.089 239.6 22.9526 239.681C22.8162 239.762 22.7122 239.864 22.6408 239.988C22.5693 240.108 22.5336 240.249 22.5336 240.412C22.5336 240.577 22.571 240.728 22.6457 240.865C22.7204 241.001 22.8324 241.11 22.9818 241.191C23.1345 241.269 23.3212 241.308 23.5421 241.308C23.8182 241.308 24.0618 241.25 24.2729 241.133C24.484 241.016 24.6513 240.873 24.7747 240.704C24.9014 240.535 24.9696 240.371 24.9794 240.212L25.3642 240.646C25.3415 240.782 25.2798 240.933 25.1791 241.099C25.0784 241.264 24.9436 241.423 24.7747 241.576C24.6091 241.726 24.4109 241.851 24.1803 241.951C23.953 242.049 23.6964 242.097 23.4106 242.097C23.0533 242.097 22.7399 242.028 22.4703 241.888C22.2039 241.748 21.9961 241.562 21.8466 241.328C21.7005 241.091 21.6274 240.826 21.6274 240.534C21.6274 240.251 21.6826 240.002 21.7931 239.788C21.9035 239.57 22.0626 239.39 22.2705 239.247C22.4784 239.101 22.7285 238.991 23.0208 238.916C23.3131 238.841 23.6395 238.804 24.0001 238.804H25.0476ZM28.1121 237.854V242H27.2107V236.728H28.0633L28.1121 237.854ZM27.8977 239.164L27.5225 239.15C27.5258 238.789 27.5794 238.456 27.6833 238.151C27.7873 237.843 27.9334 237.575 28.1218 237.347C28.3102 237.12 28.5343 236.944 28.7941 236.821C29.0572 236.694 29.3479 236.631 29.6662 236.631C29.9261 236.631 30.1599 236.667 30.3678 236.738C30.5757 236.806 30.7527 236.917 30.8988 237.07C31.0482 237.222 31.1619 237.42 31.2399 237.664C31.3178 237.904 31.3568 238.198 31.3568 238.546V242H30.4506V238.536C30.4506 238.26 30.41 238.039 30.3288 237.873C30.2476 237.705 30.1291 237.583 29.9732 237.508C29.8173 237.43 29.6256 237.391 29.3983 237.391C29.1741 237.391 28.9695 237.438 28.7844 237.532C28.6025 237.627 28.445 237.756 28.3118 237.922C28.1819 238.088 28.0796 238.278 28.0049 238.492C27.9334 238.703 27.8977 238.927 27.8977 239.164Z" fill="#333333"/>
<path d="M66.4277 234.906V242H65.4874V234.906H66.4277ZM69.3997 238.098V238.867H66.2231V238.098H69.3997ZM69.882 234.906V235.676H66.2231V234.906H69.882ZM72.9465 242.097C72.5795 242.097 72.2465 242.036 71.9477 241.912C71.6522 241.786 71.3972 241.609 71.1828 241.381C70.9717 241.154 70.8093 240.884 70.6956 240.573C70.5819 240.261 70.5251 239.92 70.5251 239.549V239.345C70.5251 238.916 70.5884 238.534 70.7151 238.2C70.8418 237.862 71.0139 237.576 71.2315 237.342C71.4492 237.109 71.696 236.931 71.9721 236.811C72.2482 236.691 72.534 236.631 72.8296 236.631C73.2063 236.631 73.5311 236.696 73.804 236.826C74.08 236.956 74.3058 237.138 74.4812 237.372C74.6566 237.602 74.7865 237.875 74.8709 238.19C74.9554 238.502 74.9976 238.843 74.9976 239.213V239.618H71.061V238.882H74.0963V238.814C74.0833 238.58 74.0346 238.352 73.9501 238.132C73.8689 237.911 73.739 237.729 73.5604 237.586C73.3817 237.443 73.1381 237.372 72.8296 237.372C72.6249 237.372 72.4365 237.415 72.2644 237.503C72.0923 237.588 71.9445 237.714 71.8211 237.883C71.6976 238.052 71.6018 238.258 71.5336 238.502C71.4654 238.745 71.4313 239.026 71.4313 239.345V239.549C71.4313 239.799 71.4654 240.035 71.5336 240.256C71.6051 240.473 71.7074 240.665 71.8405 240.831C71.977 240.996 72.141 241.126 72.3326 241.22C72.5275 241.315 72.7484 241.362 72.9952 241.362C73.3135 241.362 73.5831 241.297 73.804 241.167C74.0248 241.037 74.2181 240.863 74.3837 240.646L74.9294 241.079C74.8157 241.251 74.6712 241.415 74.4958 241.571C74.3204 241.727 74.1044 241.854 73.8478 241.951C73.5945 242.049 73.294 242.097 72.9465 242.097ZM76.0451 234.517H76.9513V240.977L76.8733 242H76.0451V234.517ZM80.5127 239.32V239.423C80.5127 239.806 80.4672 240.162 80.3763 240.49C80.2854 240.814 80.1522 241.097 79.9768 241.337C79.8014 241.578 79.587 241.765 79.3337 241.898C79.0803 242.031 78.7896 242.097 78.4616 242.097C78.1271 242.097 77.8331 242.041 77.5798 241.927C77.3297 241.81 77.1185 241.643 76.9464 241.425C76.7743 241.207 76.6362 240.944 76.5323 240.636C76.4316 240.327 76.3618 239.98 76.3228 239.593V239.145C76.3618 238.755 76.4316 238.406 76.5323 238.098C76.6362 237.789 76.7743 237.526 76.9464 237.308C77.1185 237.087 77.3297 236.92 77.5798 236.806C77.8299 236.69 78.1206 236.631 78.4519 236.631C78.7832 236.631 79.0771 236.696 79.3337 236.826C79.5903 236.953 79.8046 237.134 79.9768 237.372C80.1522 237.609 80.2854 237.893 80.3763 238.224C80.4672 238.552 80.5127 238.918 80.5127 239.32ZM79.6065 239.423V239.32C79.6065 239.057 79.5822 238.81 79.5334 238.58C79.4847 238.346 79.4068 238.141 79.2996 237.966C79.1924 237.787 79.0511 237.648 78.8757 237.547C78.7003 237.443 78.4843 237.391 78.2277 237.391C78.0004 237.391 77.8023 237.43 77.6334 237.508C77.4677 237.586 77.3264 237.692 77.2095 237.825C77.0926 237.955 76.9967 238.104 76.922 238.273C76.8506 238.439 76.797 238.611 76.7613 238.789V239.964C76.8132 240.191 76.8977 240.41 77.0146 240.621C77.1348 240.829 77.2939 241 77.4921 241.133C77.6934 241.266 77.9419 241.333 78.2375 241.333C78.4811 241.333 78.689 241.284 78.8611 241.186C79.0365 241.086 79.1778 240.948 79.285 240.772C79.3954 240.597 79.4766 240.394 79.5286 240.163C79.5805 239.933 79.6065 239.686 79.6065 239.423Z" fill="#333333"/>
<path d="M114.676 234.906H115.587L117.911 240.689L120.23 234.906H121.146L118.261 242H117.55L114.676 234.906ZM114.378 234.906H115.182L115.314 239.233V242H114.378V234.906ZM120.634 234.906H121.438V242H120.503V239.233L120.634 234.906ZM126.062 241.099V238.385C126.062 238.177 126.019 237.997 125.935 237.844C125.854 237.688 125.73 237.568 125.565 237.484C125.399 237.399 125.194 237.357 124.951 237.357C124.723 237.357 124.524 237.396 124.351 237.474C124.183 237.552 124.049 237.654 123.952 237.781C123.858 237.908 123.811 238.044 123.811 238.19H122.909C122.909 238.002 122.958 237.815 123.055 237.63C123.153 237.445 123.293 237.277 123.474 237.128C123.66 236.975 123.88 236.855 124.137 236.767C124.397 236.677 124.686 236.631 125.004 236.631C125.388 236.631 125.725 236.696 126.018 236.826C126.313 236.956 126.544 237.152 126.709 237.415C126.878 237.675 126.963 238.002 126.963 238.395V240.85C126.963 241.026 126.977 241.212 127.007 241.41C127.039 241.609 127.086 241.779 127.148 241.922V242H126.208C126.162 241.896 126.126 241.758 126.1 241.586C126.075 241.41 126.062 241.248 126.062 241.099ZM126.217 238.804L126.227 239.437H125.316C125.06 239.437 124.831 239.458 124.629 239.501C124.428 239.54 124.259 239.6 124.122 239.681C123.986 239.762 123.882 239.864 123.811 239.988C123.739 240.108 123.703 240.249 123.703 240.412C123.703 240.577 123.741 240.728 123.816 240.865C123.89 241.001 124.002 241.11 124.152 241.191C124.304 241.269 124.491 241.308 124.712 241.308C124.988 241.308 125.232 241.25 125.443 241.133C125.654 241.016 125.821 240.873 125.945 240.704C126.071 240.535 126.139 240.371 126.149 240.212L126.534 240.646C126.511 240.782 126.45 240.933 126.349 241.099C126.248 241.264 126.113 241.423 125.945 241.576C125.779 241.726 125.581 241.851 125.35 241.951C125.123 242.049 124.866 242.097 124.58 242.097C124.223 242.097 123.91 242.028 123.64 241.888C123.374 241.748 123.166 241.562 123.017 241.328C122.87 241.091 122.797 240.826 122.797 240.534C122.797 240.251 122.852 240.002 122.963 239.788C123.073 239.57 123.233 239.39 123.44 239.247C123.648 239.101 123.898 238.991 124.191 238.916C124.483 238.841 124.809 238.804 125.17 238.804H126.217ZM129.282 237.557V242H128.381V236.728H129.258L129.282 237.557ZM130.929 236.699L130.924 237.537C130.849 237.521 130.778 237.511 130.709 237.508C130.644 237.502 130.57 237.498 130.485 237.498C130.277 237.498 130.094 237.531 129.935 237.596C129.776 237.661 129.641 237.752 129.53 237.869C129.42 237.985 129.332 238.125 129.267 238.288C129.206 238.447 129.165 238.622 129.145 238.814L128.892 238.96C128.892 238.642 128.923 238.343 128.985 238.063C129.05 237.784 129.149 237.537 129.282 237.323C129.415 237.105 129.584 236.936 129.789 236.816C129.996 236.693 130.243 236.631 130.529 236.631C130.594 236.631 130.669 236.639 130.753 236.655C130.838 236.668 130.896 236.683 130.929 236.699Z" fill="#333333"/>
<path d="M167.018 235.535L164.67 242H163.71L166.414 234.906H167.032L167.018 235.535ZM168.986 242L166.633 235.535L166.618 234.906H167.237L169.951 242H168.986ZM168.864 239.374V240.144H164.879V239.374H168.864ZM171.666 237.742V244.027H170.76V236.728H171.588L171.666 237.742ZM175.217 239.32V239.423C175.217 239.806 175.172 240.162 175.081 240.49C174.99 240.814 174.857 241.097 174.681 241.337C174.509 241.578 174.297 241.765 174.043 241.898C173.79 242.031 173.499 242.097 173.171 242.097C172.837 242.097 172.541 242.042 172.284 241.932C172.028 241.821 171.81 241.661 171.632 241.449C171.453 241.238 171.31 240.985 171.203 240.689C171.099 240.394 171.027 240.061 170.989 239.691V239.145C171.027 238.755 171.101 238.406 171.208 238.098C171.315 237.789 171.456 237.526 171.632 237.308C171.81 237.087 172.026 236.92 172.28 236.806C172.533 236.69 172.825 236.631 173.157 236.631C173.488 236.631 173.782 236.696 174.038 236.826C174.295 236.953 174.511 237.134 174.686 237.372C174.862 237.609 174.993 237.893 175.081 238.224C175.172 238.552 175.217 238.918 175.217 239.32ZM174.311 239.423V239.32C174.311 239.057 174.284 238.81 174.228 238.58C174.173 238.346 174.087 238.141 173.97 237.966C173.857 237.787 173.71 237.648 173.532 237.547C173.353 237.443 173.14 237.391 172.893 237.391C172.666 237.391 172.468 237.43 172.299 237.508C172.133 237.586 171.992 237.692 171.875 237.825C171.758 237.955 171.662 238.104 171.588 238.273C171.516 238.439 171.463 238.611 171.427 238.789V240.051C171.492 240.279 171.583 240.493 171.7 240.694C171.817 240.892 171.973 241.053 172.168 241.177C172.362 241.297 172.608 241.357 172.903 241.357C173.147 241.357 173.356 241.307 173.532 241.206C173.71 241.102 173.857 240.961 173.97 240.782C174.087 240.603 174.173 240.399 174.228 240.168C174.284 239.934 174.311 239.686 174.311 239.423ZM177.269 237.557V242H176.367V236.728H177.244L177.269 237.557ZM178.915 236.699L178.91 237.537C178.836 237.521 178.764 237.511 178.696 237.508C178.631 237.502 178.556 237.498 178.472 237.498C178.264 237.498 178.081 237.531 177.921 237.596C177.762 237.661 177.627 237.752 177.517 237.869C177.407 237.985 177.319 238.125 177.254 238.288C177.192 238.447 177.152 238.622 177.132 238.814L176.879 238.96C176.879 238.642 176.91 238.343 176.971 238.063C177.036 237.784 177.135 237.537 177.269 237.323C177.402 237.105 177.571 236.936 177.775 236.816C177.983 236.693 178.23 236.631 178.516 236.631C178.581 236.631 178.655 236.639 178.74 236.655C178.824 236.668 178.883 236.683 178.915 236.699Z" fill="#333333"/>
<path d="M212.542 234.906H213.453L215.777 240.689L218.096 234.906H219.012L216.128 242H215.417L212.542 234.906ZM212.245 234.906H213.049L213.181 239.233V242H212.245V234.906ZM218.501 234.906H219.305V242H218.369V239.233L218.501 234.906ZM223.928 241.099V238.385C223.928 238.177 223.886 237.997 223.801 237.844C223.72 237.688 223.597 237.568 223.431 237.484C223.266 237.399 223.061 237.357 222.817 237.357C222.59 237.357 222.39 237.396 222.218 237.474C222.049 237.552 221.916 237.654 221.819 237.781C221.724 237.908 221.677 238.044 221.677 238.19H220.776C220.776 238.002 220.825 237.815 220.922 237.63C221.02 237.445 221.159 237.277 221.341 237.128C221.526 236.975 221.747 236.855 222.004 236.767C222.264 236.677 222.553 236.631 222.871 236.631C223.254 236.631 223.592 236.696 223.884 236.826C224.18 236.956 224.41 237.152 224.576 237.415C224.745 237.675 224.829 238.002 224.829 238.395V240.85C224.829 241.026 224.844 241.212 224.873 241.41C224.906 241.609 224.953 241.779 225.015 241.922V242H224.074C224.029 241.896 223.993 241.758 223.967 241.586C223.941 241.41 223.928 241.248 223.928 241.099ZM224.084 238.804L224.094 239.437H223.183C222.926 239.437 222.697 239.458 222.496 239.501C222.294 239.54 222.126 239.6 221.989 239.681C221.853 239.762 221.749 239.864 221.677 239.988C221.606 240.108 221.57 240.249 221.57 240.412C221.57 240.577 221.607 240.728 221.682 240.865C221.757 241.001 221.869 241.11 222.018 241.191C222.171 241.269 222.358 241.308 222.579 241.308C222.855 241.308 223.098 241.25 223.309 241.133C223.521 241.016 223.688 240.873 223.811 240.704C223.938 240.535 224.006 240.371 224.016 240.212L224.401 240.646C224.378 240.782 224.316 240.933 224.216 241.099C224.115 241.264 223.98 241.423 223.811 241.576C223.646 241.726 223.447 241.851 223.217 241.951C222.989 242.049 222.733 242.097 222.447 242.097C222.09 242.097 221.776 242.028 221.507 241.888C221.24 241.748 221.033 241.562 220.883 241.328C220.737 241.091 220.664 240.826 220.664 240.534C220.664 240.251 220.719 240.002 220.83 239.788C220.94 239.57 221.099 239.39 221.307 239.247C221.515 239.101 221.765 238.991 222.057 238.916C222.35 238.841 222.676 238.804 223.037 238.804H224.084ZM227.65 241.454L229.117 236.728H230.081L227.967 242.814C227.918 242.944 227.853 243.083 227.772 243.233C227.694 243.385 227.594 243.53 227.47 243.666C227.347 243.803 227.197 243.913 227.022 243.998C226.85 244.085 226.643 244.129 226.403 244.129C226.332 244.129 226.241 244.119 226.13 244.1C226.02 244.08 225.942 244.064 225.896 244.051L225.892 243.32C225.918 243.324 225.958 243.327 226.013 243.33C226.072 243.337 226.112 243.34 226.135 243.34C226.34 243.34 226.514 243.312 226.656 243.257C226.799 243.205 226.92 243.116 227.017 242.989C227.118 242.866 227.204 242.695 227.275 242.477L227.65 241.454ZM226.574 236.728L227.943 240.821L228.177 241.771L227.529 242.102L225.59 236.728H226.574Z" fill="#333333"/>
<path d="M266.352 239.929V234.906H267.288V239.929C267.288 240.397 267.192 240.792 267 241.113C266.809 241.435 266.544 241.68 266.206 241.849C265.871 242.015 265.487 242.097 265.051 242.097C264.616 242.097 264.23 242.023 263.892 241.873C263.554 241.724 263.289 241.497 263.098 241.191C262.906 240.886 262.81 240.501 262.81 240.037H263.751C263.751 240.335 263.806 240.581 263.916 240.772C264.027 240.964 264.179 241.105 264.374 241.196C264.572 241.287 264.798 241.333 265.051 241.333C265.298 241.333 265.519 241.281 265.714 241.177C265.912 241.069 266.068 240.912 266.182 240.704C266.295 240.493 266.352 240.235 266.352 239.929ZM271.97 240.782V236.728H272.876V242H272.013L271.97 240.782ZM272.14 239.671L272.515 239.661C272.515 240.012 272.478 240.337 272.403 240.636C272.332 240.931 272.215 241.188 272.052 241.406C271.89 241.623 271.677 241.794 271.414 241.917C271.151 242.037 270.831 242.097 270.454 242.097C270.198 242.097 269.962 242.06 269.748 241.985C269.537 241.911 269.355 241.795 269.202 241.639C269.05 241.484 268.931 241.281 268.847 241.03C268.765 240.78 268.725 240.48 268.725 240.129V236.728H269.626V240.139C269.626 240.376 269.652 240.573 269.704 240.728C269.759 240.881 269.832 241.003 269.923 241.094C270.018 241.182 270.121 241.243 270.235 241.279C270.352 241.315 270.472 241.333 270.596 241.333C270.979 241.333 271.283 241.259 271.507 241.113C271.731 240.964 271.892 240.764 271.989 240.514C272.09 240.261 272.14 239.98 272.14 239.671ZM275.151 237.854V242H274.25V236.728H275.102L275.151 237.854ZM274.937 239.164L274.562 239.15C274.565 238.789 274.618 238.456 274.722 238.151C274.826 237.843 274.972 237.575 275.161 237.347C275.349 237.12 275.573 236.944 275.833 236.821C276.096 236.694 276.387 236.631 276.705 236.631C276.965 236.631 277.199 236.667 277.407 236.738C277.615 236.806 277.792 236.917 277.938 237.07C278.087 237.222 278.201 237.42 278.279 237.664C278.357 237.904 278.396 238.198 278.396 238.546V242H277.49V238.536C277.49 238.26 277.449 238.039 277.368 237.873C277.287 237.705 277.168 237.583 277.012 237.508C276.856 237.43 276.665 237.391 276.437 237.391C276.213 237.391 276.009 237.438 275.823 237.532C275.641 237.627 275.484 237.756 275.351 237.922C275.221 238.088 275.119 238.278 275.044 238.492C274.972 238.703 274.937 238.927 274.937 239.164Z" fill="#333333"/>
<path d="M315.397 239.929V234.906H316.332V239.929C316.332 240.397 316.236 240.792 316.045 241.113C315.853 241.435 315.588 241.68 315.25 241.849C314.916 242.015 314.531 242.097 314.096 242.097C313.661 242.097 313.274 242.023 312.936 241.873C312.598 241.724 312.334 241.497 312.142 241.191C311.95 240.886 311.855 240.501 311.855 240.037H312.795C312.795 240.335 312.85 240.581 312.961 240.772C313.071 240.964 313.224 241.105 313.419 241.196C313.617 241.287 313.842 241.333 314.096 241.333C314.343 241.333 314.563 241.281 314.758 241.177C314.957 241.069 315.112 240.912 315.226 240.704C315.34 240.493 315.397 240.235 315.397 239.929ZM321.014 240.782V236.728H321.92V242H321.058L321.014 240.782ZM321.185 239.671L321.56 239.661C321.56 240.012 321.522 240.337 321.448 240.636C321.376 240.931 321.259 241.188 321.097 241.406C320.934 241.623 320.722 241.794 320.459 241.917C320.196 242.037 319.876 242.097 319.499 242.097C319.242 242.097 319.007 242.06 318.792 241.985C318.581 241.911 318.399 241.795 318.247 241.639C318.094 241.484 317.976 241.281 317.891 241.03C317.81 240.78 317.769 240.48 317.769 240.129V236.728H318.671V240.139C318.671 240.376 318.697 240.573 318.749 240.728C318.804 240.881 318.877 241.003 318.968 241.094C319.062 241.182 319.166 241.243 319.28 241.279C319.397 241.315 319.517 241.333 319.64 241.333C320.023 241.333 320.327 241.259 320.551 241.113C320.775 240.964 320.936 240.764 321.034 240.514C321.134 240.261 321.185 239.98 321.185 239.671ZM324.273 234.517V242H323.367V234.517H324.273Z" fill="#333333"/>
<path d="M360.985 235.535L358.637 242H357.677L360.381 234.906H361L360.985 235.535ZM362.953 242L360.6 235.535L360.585 234.906H361.204L363.918 242H362.953ZM362.831 239.374V240.144H358.846V239.374H362.831ZM367.898 240.782V236.728H368.805V242H367.942L367.898 240.782ZM368.069 239.671L368.444 239.661C368.444 240.012 368.407 240.337 368.332 240.636C368.26 240.931 368.144 241.188 367.981 241.406C367.819 241.623 367.606 241.794 367.343 241.917C367.08 242.037 366.76 242.097 366.383 242.097C366.127 242.097 365.891 242.06 365.677 241.985C365.466 241.911 365.284 241.795 365.131 241.639C364.978 241.484 364.86 241.281 364.775 241.03C364.694 240.78 364.654 240.48 364.654 240.129V236.728H365.555V240.139C365.555 240.376 365.581 240.573 365.633 240.728C365.688 240.881 365.761 241.003 365.852 241.094C365.946 241.182 366.05 241.243 366.164 241.279C366.281 241.315 366.401 241.333 366.524 241.333C366.908 241.333 367.211 241.259 367.436 241.113C367.66 240.964 367.82 240.764 367.918 240.514C368.019 240.261 368.069 239.98 368.069 239.671ZM373.594 236.728H374.412V241.888C374.412 242.352 374.318 242.749 374.13 243.077C373.941 243.405 373.678 243.653 373.34 243.822C373.006 243.994 372.619 244.08 372.181 244.08C371.999 244.08 371.785 244.051 371.538 243.993C371.294 243.937 371.054 243.842 370.817 243.705C370.583 243.572 370.386 243.392 370.227 243.164L370.7 242.628C370.921 242.895 371.151 243.08 371.392 243.184C371.635 243.288 371.876 243.34 372.113 243.34C372.398 243.34 372.645 243.286 372.853 243.179C373.061 243.072 373.222 242.913 373.336 242.702C373.452 242.494 373.511 242.237 373.511 241.932V237.888L373.594 236.728ZM369.964 239.423V239.32C369.964 238.918 370.011 238.552 370.105 238.224C370.203 237.893 370.341 237.609 370.519 237.372C370.701 237.134 370.921 236.953 371.177 236.826C371.434 236.696 371.723 236.631 372.044 236.631C372.376 236.631 372.665 236.69 372.912 236.806C373.162 236.92 373.373 237.087 373.545 237.308C373.72 237.526 373.858 237.789 373.959 238.098C374.06 238.406 374.13 238.755 374.169 239.145V239.593C374.133 239.98 374.063 240.327 373.959 240.636C373.858 240.944 373.72 241.207 373.545 241.425C373.373 241.643 373.162 241.81 372.912 241.927C372.662 242.041 372.369 242.097 372.035 242.097C371.72 242.097 371.434 242.031 371.177 241.898C370.924 241.765 370.706 241.578 370.524 241.337C370.342 241.097 370.203 240.814 370.105 240.49C370.011 240.162 369.964 239.806 369.964 239.423ZM370.865 239.32V239.423C370.865 239.686 370.891 239.933 370.943 240.163C370.999 240.394 371.081 240.597 371.192 240.772C371.306 240.948 371.45 241.086 371.625 241.186C371.801 241.284 372.01 241.333 372.254 241.333C372.553 241.333 372.8 241.269 372.994 241.143C373.189 241.016 373.344 240.849 373.457 240.641C373.574 240.433 373.665 240.207 373.73 239.964V238.789C373.694 238.611 373.639 238.439 373.564 238.273C373.493 238.104 373.399 237.955 373.282 237.825C373.168 237.692 373.027 237.586 372.858 237.508C372.689 237.43 372.491 237.391 372.264 237.391C372.017 237.391 371.804 237.443 371.625 237.547C371.45 237.648 371.306 237.787 371.192 237.966C371.081 238.141 370.999 238.346 370.943 238.58C370.891 238.81 370.865 239.057 370.865 239.32Z" fill="#333333"/>
<path d="M412.01 240.207C412.01 240.041 411.984 239.895 411.932 239.769C411.883 239.639 411.796 239.522 411.669 239.418C411.545 239.314 411.373 239.215 411.152 239.121C410.935 239.026 410.659 238.931 410.324 238.833C409.973 238.729 409.657 238.614 409.374 238.487C409.092 238.357 408.85 238.21 408.648 238.044C408.447 237.878 408.293 237.688 408.185 237.474C408.078 237.26 408.025 237.014 408.025 236.738C408.025 236.462 408.081 236.207 408.195 235.973C408.309 235.739 408.471 235.536 408.682 235.364C408.897 235.189 409.152 235.053 409.447 234.955C409.743 234.858 410.072 234.809 410.436 234.809C410.969 234.809 411.42 234.911 411.791 235.116C412.164 235.317 412.448 235.582 412.643 235.91C412.838 236.235 412.936 236.582 412.936 236.953H412C412 236.686 411.943 236.451 411.83 236.246C411.716 236.038 411.544 235.876 411.313 235.759C411.083 235.639 410.79 235.579 410.436 235.579C410.102 235.579 409.826 235.629 409.608 235.73C409.39 235.83 409.228 235.967 409.121 236.139C409.017 236.311 408.965 236.508 408.965 236.728C408.965 236.878 408.996 237.014 409.057 237.138C409.122 237.258 409.221 237.37 409.355 237.474C409.491 237.578 409.663 237.674 409.871 237.761C410.082 237.849 410.334 237.933 410.626 238.015C411.029 238.128 411.377 238.255 411.669 238.395C411.961 238.534 412.202 238.692 412.39 238.867C412.582 239.039 412.723 239.236 412.814 239.457C412.908 239.674 412.955 239.921 412.955 240.197C412.955 240.486 412.897 240.748 412.78 240.982C412.663 241.216 412.495 241.415 412.278 241.581C412.06 241.747 411.799 241.875 411.493 241.966C411.191 242.054 410.854 242.097 410.48 242.097C410.152 242.097 409.829 242.052 409.511 241.961C409.196 241.87 408.908 241.734 408.648 241.552C408.392 241.37 408.185 241.146 408.029 240.879C407.877 240.61 407.8 240.298 407.8 239.944H408.736C408.736 240.188 408.783 240.397 408.877 240.573C408.971 240.745 409.1 240.888 409.262 241.001C409.428 241.115 409.614 241.199 409.822 241.255C410.033 241.307 410.253 241.333 410.48 241.333C410.808 241.333 411.086 241.287 411.313 241.196C411.541 241.105 411.713 240.975 411.83 240.806C411.95 240.637 412.01 240.438 412.01 240.207ZM416.205 242.097C415.838 242.097 415.505 242.036 415.206 241.912C414.91 241.786 414.655 241.609 414.441 241.381C414.23 241.154 414.068 240.884 413.954 240.573C413.84 240.261 413.783 239.92 413.783 239.549V239.345C413.783 238.916 413.847 238.534 413.973 238.2C414.1 237.862 414.272 237.576 414.49 237.342C414.707 237.109 414.954 236.931 415.23 236.811C415.506 236.691 415.792 236.631 416.088 236.631C416.465 236.631 416.789 236.696 417.062 236.826C417.338 236.956 417.564 237.138 417.739 237.372C417.915 237.602 418.045 237.875 418.129 238.19C418.214 238.502 418.256 238.843 418.256 239.213V239.618H414.319V238.882H417.354V238.814C417.342 238.58 417.293 238.352 417.208 238.132C417.127 237.911 416.997 237.729 416.819 237.586C416.64 237.443 416.396 237.372 416.088 237.372C415.883 237.372 415.695 237.415 415.523 237.503C415.35 237.588 415.203 237.714 415.079 237.883C414.956 238.052 414.86 238.258 414.792 238.502C414.724 238.745 414.69 239.026 414.69 239.345V239.549C414.69 239.799 414.724 240.035 414.792 240.256C414.863 240.473 414.966 240.665 415.099 240.831C415.235 240.996 415.399 241.126 415.591 241.22C415.786 241.315 416.007 241.362 416.253 241.362C416.572 241.362 416.841 241.297 417.062 241.167C417.283 241.037 417.476 240.863 417.642 240.646L418.188 241.079C418.074 241.251 417.929 241.415 417.754 241.571C417.579 241.727 417.363 241.854 417.106 241.951C416.853 242.049 416.552 242.097 416.205 242.097ZM420.209 237.742V244.027H419.303V236.728H420.132L420.209 237.742ZM423.761 239.32V239.423C423.761 239.806 423.716 240.162 423.625 240.49C423.534 240.814 423.401 241.097 423.225 241.337C423.053 241.578 422.84 241.765 422.587 241.898C422.334 242.031 422.043 242.097 421.715 242.097C421.38 242.097 421.085 242.042 420.828 241.932C420.572 241.821 420.354 241.661 420.175 241.449C419.997 241.238 419.854 240.985 419.747 240.689C419.643 240.394 419.571 240.061 419.532 239.691V239.145C419.571 238.755 419.644 238.406 419.752 238.098C419.859 237.789 420 237.526 420.175 237.308C420.354 237.087 420.57 236.92 420.823 236.806C421.077 236.69 421.369 236.631 421.7 236.631C422.032 236.631 422.326 236.696 422.582 236.826C422.839 236.953 423.055 237.134 423.23 237.372C423.406 237.609 423.537 237.893 423.625 238.224C423.716 238.552 423.761 238.918 423.761 239.32ZM422.855 239.423V239.32C422.855 239.057 422.827 238.81 422.772 238.58C422.717 238.346 422.631 238.141 422.514 237.966C422.4 237.787 422.254 237.648 422.075 237.547C421.897 237.443 421.684 237.391 421.437 237.391C421.21 237.391 421.012 237.43 420.843 237.508C420.677 237.586 420.536 237.692 420.419 237.825C420.302 237.955 420.206 238.104 420.132 238.273C420.06 238.439 420.006 238.611 419.971 238.789V240.051C420.036 240.279 420.127 240.493 420.244 240.694C420.361 240.892 420.516 241.053 420.711 241.177C420.906 241.297 421.151 241.357 421.447 241.357C421.691 241.357 421.9 241.307 422.075 241.206C422.254 241.102 422.4 240.961 422.514 240.782C422.631 240.603 422.717 240.399 422.772 240.168C422.827 239.934 422.855 239.686 422.855 239.423Z" fill="#333333"/>
<path d="M462.922 238.229V238.677C462.922 239.21 462.855 239.687 462.722 240.11C462.589 240.532 462.397 240.891 462.147 241.186C461.897 241.482 461.596 241.708 461.246 241.864C460.898 242.019 460.508 242.097 460.076 242.097C459.657 242.097 459.272 242.019 458.922 241.864C458.574 241.708 458.272 241.482 458.015 241.186C457.762 240.891 457.566 240.532 457.426 240.11C457.286 239.687 457.216 239.21 457.216 238.677V238.229C457.216 237.696 457.285 237.221 457.421 236.802C457.561 236.379 457.757 236.02 458.011 235.725C458.264 235.426 458.564 235.199 458.912 235.043C459.263 234.887 459.648 234.809 460.067 234.809C460.499 234.809 460.888 234.887 461.236 235.043C461.587 235.199 461.887 235.426 462.137 235.725C462.39 236.02 462.584 236.379 462.717 236.802C462.853 237.221 462.922 237.696 462.922 238.229ZM461.991 238.677V238.219C461.991 237.797 461.947 237.424 461.859 237.099C461.775 236.774 461.65 236.501 461.484 236.28C461.319 236.059 461.116 235.892 460.875 235.778C460.638 235.665 460.369 235.608 460.067 235.608C459.774 235.608 459.51 235.665 459.272 235.778C459.039 235.892 458.837 236.059 458.668 236.28C458.503 236.501 458.374 236.774 458.283 237.099C458.192 237.424 458.147 237.797 458.147 238.219V238.677C458.147 239.103 458.192 239.48 458.283 239.808C458.374 240.132 458.504 240.407 458.673 240.631C458.845 240.852 459.048 241.019 459.282 241.133C459.519 241.246 459.784 241.303 460.076 241.303C460.382 241.303 460.653 241.246 460.89 241.133C461.127 241.019 461.327 240.852 461.489 240.631C461.655 240.407 461.78 240.132 461.864 239.808C461.949 239.48 461.991 239.103 461.991 238.677ZM466.303 241.357C466.517 241.357 466.715 241.313 466.897 241.225C467.079 241.138 467.228 241.017 467.345 240.865C467.462 240.709 467.529 240.532 467.545 240.334H468.403C468.386 240.646 468.281 240.936 468.086 241.206C467.894 241.472 467.643 241.688 467.331 241.854C467.019 242.016 466.676 242.097 466.303 242.097C465.906 242.097 465.561 242.028 465.265 241.888C464.973 241.748 464.729 241.557 464.534 241.313C464.343 241.069 464.198 240.79 464.101 240.475C464.006 240.157 463.959 239.821 463.959 239.467V239.262C463.959 238.908 464.006 238.573 464.101 238.258C464.198 237.94 464.343 237.659 464.534 237.415C464.729 237.172 464.973 236.98 465.265 236.841C465.561 236.701 465.906 236.631 466.303 236.631C466.715 236.631 467.076 236.715 467.384 236.884C467.693 237.05 467.935 237.277 468.11 237.566C468.289 237.852 468.386 238.177 468.403 238.541H467.545C467.529 238.323 467.467 238.127 467.36 237.951C467.256 237.776 467.113 237.636 466.931 237.532C466.753 237.425 466.543 237.372 466.303 237.372C466.027 237.372 465.794 237.427 465.606 237.537C465.421 237.644 465.273 237.791 465.163 237.976C465.055 238.158 464.978 238.361 464.929 238.585C464.883 238.806 464.861 239.031 464.861 239.262V239.467C464.861 239.697 464.883 239.925 464.929 240.149C464.974 240.373 465.051 240.576 465.158 240.758C465.268 240.94 465.416 241.086 465.601 241.196C465.79 241.303 466.023 241.357 466.303 241.357ZM471.623 236.728V237.42H468.773V236.728H471.623ZM469.737 235.447H470.639V240.694C470.639 240.873 470.666 241.008 470.722 241.099C470.777 241.19 470.848 241.25 470.936 241.279C471.024 241.308 471.118 241.323 471.219 241.323C471.293 241.323 471.371 241.316 471.452 241.303C471.537 241.287 471.6 241.274 471.642 241.264L471.647 242C471.576 242.023 471.482 242.044 471.365 242.063C471.251 242.086 471.113 242.097 470.951 242.097C470.73 242.097 470.527 242.054 470.342 241.966C470.156 241.878 470.009 241.732 469.898 241.527C469.791 241.32 469.737 241.04 469.737 240.689V235.447Z" fill="#333333"/>
<path d="M510.811 234.906V242H509.866L506.294 236.529V242H505.354V234.906H506.294L509.88 240.392V234.906H510.811ZM512.102 239.423V239.311C512.102 238.931 512.157 238.578 512.267 238.253C512.378 237.925 512.537 237.641 512.745 237.401C512.953 237.157 513.205 236.969 513.5 236.836C513.796 236.699 514.127 236.631 514.494 236.631C514.864 236.631 515.197 236.699 515.493 236.836C515.792 236.969 516.045 237.157 516.253 237.401C516.464 237.641 516.625 237.925 516.735 238.253C516.846 238.578 516.901 238.931 516.901 239.311V239.423C516.901 239.803 516.846 240.155 516.735 240.48C516.625 240.805 516.464 241.089 516.253 241.333C516.045 241.573 515.793 241.761 515.498 241.898C515.205 242.031 514.874 242.097 514.504 242.097C514.133 242.097 513.801 242.031 513.505 241.898C513.209 241.761 512.956 241.573 512.745 241.333C512.537 241.089 512.378 240.805 512.267 240.48C512.157 240.155 512.102 239.803 512.102 239.423ZM513.003 239.311V239.423C513.003 239.686 513.034 239.934 513.096 240.168C513.157 240.399 513.25 240.603 513.373 240.782C513.5 240.961 513.658 241.102 513.846 241.206C514.034 241.307 514.254 241.357 514.504 241.357C514.751 241.357 514.967 241.307 515.152 241.206C515.34 241.102 515.496 240.961 515.619 240.782C515.743 240.603 515.835 240.399 515.897 240.168C515.962 239.934 515.995 239.686 515.995 239.423V239.311C515.995 239.051 515.962 238.806 515.897 238.575C515.835 238.341 515.741 238.135 515.615 237.956C515.491 237.774 515.335 237.631 515.147 237.527C514.962 237.424 514.744 237.372 514.494 237.372C514.247 237.372 514.03 237.424 513.841 237.527C513.656 237.631 513.5 237.774 513.373 237.956C513.25 238.135 513.157 238.341 513.096 238.575C513.034 238.806 513.003 239.051 513.003 239.311ZM519.556 241.186L520.998 236.728H521.919L520.024 242H519.42L519.556 241.186ZM518.353 236.728L519.839 241.211L519.941 242H519.337L517.427 236.728H518.353Z" fill="#333333"/>
<path d="M557.527 242H556.046L556.056 241.235H557.527C558.034 241.235 558.456 241.13 558.794 240.918C559.132 240.704 559.385 240.405 559.554 240.022C559.726 239.635 559.812 239.184 559.812 238.668V238.234C559.812 237.828 559.763 237.467 559.666 237.152C559.568 236.834 559.425 236.566 559.237 236.348C559.049 236.128 558.818 235.96 558.545 235.847C558.276 235.733 557.965 235.676 557.615 235.676H556.017V234.906H557.615C558.079 234.906 558.503 234.984 558.886 235.14C559.27 235.293 559.599 235.515 559.875 235.808C560.155 236.097 560.369 236.448 560.518 236.86C560.668 237.269 560.743 237.73 560.743 238.244V238.668C560.743 239.181 560.668 239.644 560.518 240.056C560.369 240.465 560.153 240.814 559.87 241.104C559.591 241.393 559.253 241.615 558.857 241.771C558.464 241.924 558.021 242 557.527 242ZM556.548 234.906V242H555.607V234.906H556.548ZM564.207 242.097C563.839 242.097 563.507 242.036 563.208 241.912C562.912 241.786 562.657 241.609 562.443 241.381C562.232 241.154 562.069 240.884 561.956 240.573C561.842 240.261 561.785 239.92 561.785 239.549V239.345C561.785 238.916 561.848 238.534 561.975 238.2C562.102 237.862 562.274 237.576 562.492 237.342C562.709 237.109 562.956 236.931 563.232 236.811C563.508 236.691 563.794 236.631 564.09 236.631C564.466 236.631 564.791 236.696 565.064 236.826C565.34 236.956 565.566 237.138 565.741 237.372C565.917 237.602 566.047 237.875 566.131 238.19C566.215 238.502 566.258 238.843 566.258 239.213V239.618H562.321V238.882H565.356V238.814C565.343 238.58 565.295 238.352 565.21 238.132C565.129 237.911 564.999 237.729 564.82 237.586C564.642 237.443 564.398 237.372 564.09 237.372C563.885 237.372 563.697 237.415 563.524 237.503C563.352 237.588 563.205 237.714 563.081 237.883C562.958 238.052 562.862 238.258 562.794 238.502C562.725 238.745 562.691 239.026 562.691 239.345V239.549C562.691 239.799 562.725 240.035 562.794 240.256C562.865 240.473 562.967 240.665 563.101 240.831C563.237 240.996 563.401 241.126 563.593 241.22C563.788 241.315 564.008 241.362 564.255 241.362C564.574 241.362 564.843 241.297 565.064 241.167C565.285 241.037 565.478 240.863 565.644 240.646L566.189 241.079C566.076 241.251 565.931 241.415 565.756 241.571C565.58 241.727 565.364 241.854 565.108 241.951C564.854 242.049 564.554 242.097 564.207 242.097ZM569.42 241.357C569.634 241.357 569.832 241.313 570.014 241.225C570.196 241.138 570.345 241.017 570.462 240.865C570.579 240.709 570.646 240.532 570.662 240.334H571.519C571.503 240.646 571.398 240.936 571.203 241.206C571.011 241.472 570.759 241.688 570.448 241.854C570.136 242.016 569.793 242.097 569.42 242.097C569.023 242.097 568.677 242.028 568.382 241.888C568.09 241.748 567.846 241.557 567.651 241.313C567.459 241.069 567.315 240.79 567.217 240.475C567.123 240.157 567.076 239.821 567.076 239.467V239.262C567.076 238.908 567.123 238.573 567.217 238.258C567.315 237.94 567.459 237.659 567.651 237.415C567.846 237.172 568.09 236.98 568.382 236.841C568.677 236.701 569.023 236.631 569.42 236.631C569.832 236.631 570.193 236.715 570.501 236.884C570.81 237.05 571.052 237.277 571.227 237.566C571.406 237.852 571.503 238.177 571.519 238.541H570.662C570.646 238.323 570.584 238.127 570.477 237.951C570.373 237.776 570.23 237.636 570.048 237.532C569.869 237.425 569.66 237.372 569.42 237.372C569.143 237.372 568.911 237.427 568.723 237.537C568.538 237.644 568.39 237.791 568.28 237.976C568.172 238.158 568.094 238.361 568.046 238.585C568 238.806 567.977 239.031 567.977 239.262V239.467C567.977 239.697 568 239.925 568.046 240.149C568.091 240.373 568.167 240.576 568.275 240.758C568.385 240.94 568.533 241.086 568.718 241.196C568.906 241.303 569.14 241.357 569.42 241.357Z" fill="#333333"/>
<path opacity="0.2" fill-rule="evenodd" clip-rule="evenodd" d="M22.7947 54.325C28.48 54.325 46.0149 85.62 51.7002 85.62C57.3855 85.62 74.9204 204.094 80.6058 204.094C86.2911 204.094 103.826 5.14722 109.511 5.14722C115.197 5.14722 132.732 114.68 138.417 114.68C144.102 114.68 161.637 183.976 167.322 183.976C173.008 183.976 190.543 201.858 196.228 201.858C201.913 201.858 219.448 49.8543 225.133 49.8543C230.819 49.8543 248.354 76.6786 254.039 76.6786C259.724 76.6786 277.259 43.1483 282.945 43.1483C288.63 43.1483 306.165 5.14722 311.85 5.14722C317.535 5.14722 335.07 190.682 340.756 190.682C346.441 190.682 363.976 49.8543 369.661 49.8543C375.347 49.8543 392.881 74.4432 398.567 74.4432C404.252 74.4432 421.787 157.151 427.472 157.151C433.158 157.151 450.693 157.151 456.378 157.151C462.063 157.151 479.598 34.2068 485.283 34.2068C490.969 34.2068 508.504 121.386 514.189 121.386C519.874 121.386 537.409 76.6786 543.094 76.6786C548.78 76.6786 566.315 210.8 572 210.8V228.683H22.7947V54.325Z" fill="#3366CC" fill-opacity="0.75"/>
<path d="M22.7947 54.325C28.48 54.325 46.0149 85.62 51.7002 85.62C57.3855 85.62 74.9204 204.094 80.6058 204.094C86.2911 204.094 103.826 5.14722 109.511 5.14722C115.197 5.14722 132.732 114.68 138.417 114.68C144.102 114.68 161.637 183.976 167.322 183.976C173.008 183.976 190.543 201.858 196.228 201.858C201.913 201.858 219.448 49.8543 225.133 49.8543C230.819 49.8543 248.354 76.6786 254.039 76.6786C259.724 76.6786 277.259 43.1483 282.945 43.1483C288.63 43.1483 306.165 5.14722 311.85 5.14722C317.535 5.14722 335.07 190.682 340.756 190.682C346.441 190.682 363.976 49.8543 369.661 49.8543C375.347 49.8543 392.881 74.4432 398.567 74.4432C404.252 74.4432 421.787 157.151 427.472 157.151C433.158 157.151 450.693 157.151 456.378 157.151C462.063 157.151 479.598 34.2068 485.283 34.2068C490.969 34.2068 508.504 121.386 514.189 121.386C519.874 121.386 537.409 76.6786 543.094 76.6786C548.78 76.6786 566.315 210.8 572 210.8" stroke="#3366CC" stroke-opacity="0.75" stroke-width="1.47063" stroke-linejoin="round"/>
<ellipse cx="23.313" cy="54.325" rx="2.35649" ry="1.83829" fill="white"/>
<path d="M23.313 56.8986C24.8401 56.8986 26.4048 55.9059 26.4048 54.325C26.4048 52.7441 24.8401 51.7514 23.313 51.7514C21.7859 51.7514 20.2212 52.7441 20.2212 54.325C20.2212 55.9059 21.7859 56.8986 23.313 56.8986Z" stroke="#3366CC" stroke-opacity="0.75" stroke-width="1.47063"/>
<ellipse cx="52.0672" cy="85.62" rx="2.35649" ry="1.83829" fill="white"/>
<path d="M52.0672 88.1936C53.5943 88.1936 55.159 87.2009 55.159 85.62C55.159 84.0391 53.5943 83.0464 52.0672 83.0464C50.5401 83.0464 48.9754 84.0391 48.9754 85.62C48.9754 87.2009 50.5401 88.1936 52.0672 88.1936Z" stroke="#3366CC" stroke-opacity="0.75" stroke-width="1.47063"/>
<ellipse cx="80.8218" cy="204.094" rx="2.35649" ry="1.83829" fill="white"/>
<path d="M80.8218 206.667C82.3489 206.667 83.9136 205.675 83.9136 204.094C83.9136 202.513 82.3489 201.52 80.8218 201.52C79.2947 201.52 77.73 202.513 77.73 204.094C77.73 205.675 79.2947 206.667 80.8218 206.667Z" stroke="#3366CC" stroke-opacity="0.75" stroke-width="1.47063"/>
<ellipse cx="109.576" cy="5.14725" rx="2.35649" ry="1.83829" fill="white"/>
<path d="M109.576 7.72084C111.103 7.72084 112.668 6.72814 112.668 5.14725C112.668 3.56635 111.103 2.57365 109.576 2.57365C108.049 2.57365 106.484 3.56635 106.484 5.14725C106.484 6.72814 108.049 7.72084 109.576 7.72084Z" stroke="#3366CC" stroke-opacity="0.75" stroke-width="1.47063"/>
<ellipse cx="138.33" cy="114.68" rx="2.35649" ry="1.83829" fill="white"/>
<path d="M138.33 117.253C139.857 117.253 141.422 116.26 141.422 114.68C141.422 113.099 139.857 112.106 138.33 112.106C136.803 112.106 135.238 113.099 135.238 114.68C135.238 116.26 136.803 117.253 138.33 117.253Z" stroke="#3366CC" stroke-opacity="0.75" stroke-width="1.47063"/>
<ellipse cx="167.084" cy="183.976" rx="2.35649" ry="1.83829" fill="white"/>
<path d="M167.084 186.549C168.611 186.549 170.176 185.557 170.176 183.976C170.176 182.395 168.611 181.402 167.084 181.402C165.557 181.402 163.992 182.395 163.992 183.976C163.992 185.557 165.557 186.549 167.084 186.549Z" stroke="#3366CC" stroke-opacity="0.75" stroke-width="1.47063"/>
<ellipse cx="195.838" cy="201.859" rx="2.35649" ry="1.83829" fill="white"/>
<path d="M195.838 204.432C197.366 204.432 198.93 203.439 198.93 201.859C198.93 200.278 197.366 199.285 195.838 199.285C194.311 199.285 192.747 200.278 192.747 201.859C192.747 203.439 194.311 204.432 195.838 204.432Z" stroke="#3366CC" stroke-opacity="0.75" stroke-width="1.47063"/>
<ellipse cx="224.593" cy="49.8543" rx="2.35649" ry="1.83829" fill="white"/>
<path d="M224.593 52.4279C226.12 52.4279 227.685 51.4352 227.685 49.8543C227.685 48.2734 226.12 47.2807 224.593 47.2807C223.066 47.2807 221.501 48.2734 221.501 49.8543C221.501 51.4352 223.066 52.4279 224.593 52.4279Z" stroke="#3366CC" stroke-opacity="0.75" stroke-width="1.47063"/>
<ellipse cx="253.347" cy="76.6786" rx="2.35649" ry="1.83829" fill="white"/>
<path d="M253.347 79.2522C254.874 79.2522 256.439 78.2595 256.439 76.6786C256.439 75.0977 254.874 74.105 253.347 74.105C251.82 74.105 250.255 75.0977 250.255 76.6786C250.255 78.2595 251.82 79.2522 253.347 79.2522Z" stroke="#3366CC" stroke-opacity="0.75" stroke-width="1.47063"/>
<ellipse cx="282.101" cy="43.1483" rx="2.35649" ry="1.83829" fill="white"/>
<path d="M282.101 45.7219C283.628 45.7219 285.193 44.7292 285.193 43.1483C285.193 41.5675 283.628 40.5747 282.101 40.5747C280.574 40.5747 279.009 41.5675 279.009 43.1483C279.009 44.7292 280.574 45.7219 282.101 45.7219Z" stroke="#3366CC" stroke-opacity="0.75" stroke-width="1.47063"/>
<ellipse cx="310.855" cy="5.14725" rx="2.35649" ry="1.83829" fill="white"/>
<path d="M310.855 7.72084C312.382 7.72084 313.947 6.72814 313.947 5.14725C313.947 3.56635 312.382 2.57365 310.855 2.57365C309.328 2.57365 307.763 3.56635 307.763 5.14725C307.763 6.72814 309.328 7.72084 310.855 7.72084Z" stroke="#3366CC" stroke-opacity="0.75" stroke-width="1.47063"/>
<ellipse cx="339.61" cy="190.682" rx="2.35649" ry="1.83829" fill="white"/>
<path d="M339.61 193.255C341.137 193.255 342.702 192.263 342.702 190.682C342.702 189.101 341.137 188.108 339.61 188.108C338.083 188.108 336.518 189.101 336.518 190.682C336.518 192.263 338.083 193.255 339.61 193.255Z" stroke="#3366CC" stroke-opacity="0.75" stroke-width="1.47063"/>
<ellipse cx="368.364" cy="49.8543" rx="2.35649" ry="1.83829" fill="white"/>
<path d="M368.364 52.4279C369.891 52.4279 371.456 51.4352 371.456 49.8543C371.456 48.2734 369.891 47.2807 368.364 47.2807C366.837 47.2807 365.272 48.2734 365.272 49.8543C365.272 51.4352 366.837 52.4279 368.364 52.4279Z" stroke="#3366CC" stroke-opacity="0.75" stroke-width="1.47063"/>
<ellipse cx="397.118" cy="74.4431" rx="2.35649" ry="1.83829" fill="white"/>
<path d="M397.118 77.0167C398.645 77.0167 400.21 76.024 400.21 74.4431C400.21 72.8623 398.645 71.8695 397.118 71.8695C395.591 71.8695 394.026 72.8623 394.026 74.4431C394.026 76.024 395.591 77.0167 397.118 77.0167Z" stroke="#3366CC" stroke-opacity="0.75" stroke-width="1.47063"/>
<ellipse cx="425.873" cy="157.151" rx="2.35649" ry="1.83829" fill="white"/>
<path d="M425.873 159.725C427.4 159.725 428.964 158.732 428.964 157.151C428.964 155.57 427.4 154.578 425.873 154.578C424.345 154.578 422.781 155.57 422.781 157.151C422.781 158.732 424.345 159.725 425.873 159.725Z" stroke="#3366CC" stroke-opacity="0.75" stroke-width="1.47063"/>
<ellipse cx="454.626" cy="157.151" rx="2.35649" ry="1.83829" fill="white"/>
<path d="M454.627 159.725C456.154 159.725 457.718 158.732 457.718 157.151C457.718 155.57 456.154 154.578 454.627 154.578C453.099 154.578 451.535 155.57 451.535 157.151C451.535 158.732 453.099 159.725 454.627 159.725Z" stroke="#3366CC" stroke-opacity="0.75" stroke-width="1.47063"/>
<ellipse cx="483.381" cy="34.2067" rx="2.35649" ry="1.83829" fill="white"/>
<path d="M483.381 36.7803C484.908 36.7803 486.473 35.7876 486.473 34.2067C486.473 32.6258 484.908 31.6331 483.381 31.6331C481.854 31.6331 480.289 32.6258 480.289 34.2067C480.289 35.7876 481.854 36.7803 483.381 36.7803Z" stroke="#3366CC" stroke-opacity="0.75" stroke-width="1.47063"/>
<ellipse cx="512.136" cy="121.386" rx="2.35649" ry="1.83829" fill="white"/>
<path d="M512.136 123.959C513.663 123.959 515.227 122.967 515.227 121.386C515.227 119.805 513.663 118.812 512.136 118.812C510.608 118.812 509.044 119.805 509.044 121.386C509.044 122.967 510.608 123.959 512.136 123.959Z" stroke="#3366CC" stroke-opacity="0.75" stroke-width="1.47063"/>
<ellipse cx="540.889" cy="76.6786" rx="2.35649" ry="1.83829" fill="white"/>
<path d="M540.889 79.2522C542.417 79.2522 543.981 78.2595 543.981 76.6786C543.981 75.0977 542.417 74.105 540.889 74.105C539.362 74.105 537.798 75.0977 537.798 76.6786C537.798 78.2595 539.362 79.2522 540.889 79.2522Z" stroke="#3366CC" stroke-opacity="0.75" stroke-width="1.47063"/>
<ellipse cx="569.644" cy="210.8" rx="2.35649" ry="1.83829" fill="white"/>
<path d="M569.644 213.374C571.171 213.374 572.735 212.381 572.735 210.8C572.735 209.219 571.171 208.226 569.644 208.226C568.116 208.226 566.552 209.219 566.552 210.8C566.552 212.381 568.116 213.374 569.644 213.374Z" stroke="#3366CC" stroke-opacity="0.75" stroke-width="1.47063"/>
</svg>
