<svg width="29" height="22" viewBox="0 0 29 22" fill="none" xmlns="http://www.w3.org/2000/svg">
<path d="M5.21513 16.1476C4.72183 16.1476 4.2396 16.2939 3.82944 16.5679C3.41927 16.842 3.09959 17.2315 2.91081 17.6873C2.72203 18.143 2.67263 18.6445 2.76887 19.1284C2.86511 19.6122 3.10266 20.0566 3.45148 20.4054C3.8003 20.7542 4.24472 20.9918 4.72854 21.088C5.21236 21.1843 5.71386 21.1349 6.16961 20.9461C6.62537 20.7573 7.0149 20.4376 7.28897 20.0275C7.56303 19.6173 7.70931 19.1351 7.70931 18.6418C7.70858 17.9805 7.44556 17.3465 6.97797 16.8789C6.51038 16.4113 5.8764 16.1483 5.21513 16.1476ZM5.21513 19.7755C4.9909 19.7755 4.77171 19.709 4.58527 19.5844C4.39883 19.4598 4.25352 19.2828 4.16771 19.0756C4.0819 18.8685 4.05945 18.6405 4.1032 18.4206C4.14694 18.2007 4.25492 17.9987 4.41347 17.8401C4.57202 17.6816 4.77403 17.5736 4.99395 17.5298C5.21387 17.4861 5.44183 17.5085 5.64899 17.5943C5.85615 17.6802 6.03321 17.8255 6.15778 18.0119C6.28236 18.1983 6.34885 18.4175 6.34885 18.6418C6.34851 18.9423 6.22895 19.2305 6.01641 19.443C5.80387 19.6556 5.51571 19.7751 5.21513 19.7755Z" fill="#466153"/>
<path d="M28.4564 15.5104L25.7111 11.8825C25.6364 11.7838 25.5362 11.7074 25.4213 11.6614L22.2209 10.3813V3.90344H20.8604V9.83846C20.7753 9.80812 20.685 9.79508 20.5948 9.8001C20.5046 9.80512 20.4162 9.8281 20.335 9.8677C20.2538 9.90729 20.1813 9.96271 20.1218 10.0307C20.0623 10.0987 20.0169 10.1779 19.9884 10.2636L19.6674 11.2266L16.7797 8.78977L17.2109 8.34473C17.3365 8.21515 17.4054 8.04101 17.4025 7.86062C17.3997 7.68023 17.3253 7.50836 17.1957 7.38283C17.0661 7.25729 16.892 7.18837 16.7116 7.19123C16.5312 7.19409 16.3593 7.2685 16.2338 7.39808L14.4765 9.21203C14.351 9.34161 14.2821 9.51574 14.2849 9.69614C14.2878 9.87653 14.3622 10.0484 14.4918 10.1739C14.6213 10.2995 14.7955 10.3684 14.9759 10.3655C15.1563 10.3627 15.3281 10.2883 15.4537 10.1587L15.8309 9.76925L19.2042 12.6161L18.3295 15.2406H13.3779V14.1069C13.3779 13.9265 13.3062 13.7535 13.1787 13.6259C13.0511 13.4984 12.8781 13.4267 12.6977 13.4267H3.40116C3.26686 13.4267 3.13557 13.4664 3.02386 13.541L0.30293 15.3549C0.209753 15.417 0.133352 15.5012 0.0805068 15.5999C0.0276619 15.6986 8.13524e-06 15.8089 0 15.9209V18.6418C0 18.8222 0.071667 18.9952 0.199235 19.1228C0.326803 19.2504 0.499823 19.322 0.680232 19.322H2.11484C2.01282 18.8583 2.01612 18.3776 2.12449 17.9154C2.23286 17.4531 2.44355 17.0211 2.74103 16.651C3.03851 16.281 3.41521 15.9824 3.84339 15.7772C4.27157 15.572 4.74031 15.4655 5.21511 15.4655C5.6899 15.4655 6.15865 15.572 6.58683 15.7772C7.015 15.9824 7.3917 16.281 7.68919 16.651C7.98667 17.0211 8.19735 17.4531 8.30573 17.9154C8.4141 18.3776 8.4174 18.8583 8.31538 19.322H21.1613C21.0593 18.8583 21.0626 18.3776 21.171 17.9154C21.2793 17.4531 21.49 17.0211 21.7875 16.651C22.085 16.281 22.4617 15.9824 22.8899 15.7772C23.3181 15.572 23.7868 15.4655 24.2616 15.4655C24.7364 15.4655 25.2051 15.572 25.6333 15.7772C26.0615 15.9824 26.4382 16.281 26.7357 16.651C27.0332 17.0211 27.2438 17.4531 27.3522 17.9154C27.4606 18.3776 27.4639 18.8583 27.3619 19.322H27.8895C28.0689 19.322 28.241 19.2512 28.3684 19.1249C28.4958 18.9987 28.5681 18.8272 28.5697 18.6479L28.594 15.9269C28.5954 15.7767 28.547 15.6302 28.4564 15.5104Z" fill="#466153"/>
<path d="M24.2618 16.1476C23.7685 16.1476 23.2862 16.2939 22.8761 16.5679C22.4659 16.842 22.1462 17.2315 21.9574 17.6873C21.7687 18.143 21.7193 18.6445 21.8155 19.1284C21.9117 19.6122 22.1493 20.0566 22.4981 20.4054C22.8469 20.7542 23.2913 20.9918 23.7752 21.088C24.259 21.1843 24.7605 21.1349 25.2162 20.9461C25.672 20.7573 26.0615 20.4376 26.3356 20.0275C26.6097 19.6173 26.7559 19.1351 26.7559 18.6418C26.7552 17.9805 26.4922 17.3465 26.0246 16.8789C25.557 16.4113 24.923 16.1483 24.2618 16.1476ZM24.2618 19.7755C24.0375 19.7755 23.8183 19.709 23.6319 19.5844C23.4455 19.4598 23.3001 19.2828 23.2143 19.0756C23.1285 18.8685 23.1061 18.6405 23.1498 18.4206C23.1936 18.2007 23.3015 17.9987 23.4601 17.8401C23.6187 17.6816 23.8207 17.5736 24.0406 17.5298C24.2605 17.4861 24.4885 17.5085 24.6956 17.5943C24.9028 17.6802 25.0798 17.8255 25.2044 18.0119C25.329 18.1983 25.3955 18.4175 25.3955 18.6418C25.3951 18.9423 25.2756 19.2305 25.063 19.443C24.8505 19.6556 24.5623 19.7751 24.2618 19.7755Z" fill="#466153"/>
<path d="M2.72095 3.90344V12.9292C2.92761 12.8094 3.16229 12.7463 3.40118 12.7465H12.6977C12.9366 12.7463 13.1713 12.8094 13.3779 12.9295V12.7465C13.3779 12.3856 13.2346 12.0396 12.9794 11.7845C12.7243 11.5293 12.3783 11.386 12.0174 11.386H9.75001V10.479C9.75001 9.35374 9.69332 8.43832 8.38954 8.43832C8.20914 8.43832 8.03612 8.50999 7.90855 8.63756C7.78098 8.76512 7.70931 8.93814 7.70931 9.11855V11.6127C7.70931 11.4323 7.63764 11.2593 7.51008 11.1317C7.38251 11.0042 7.20949 10.9325 7.02908 10.9325H4.08141V3.90344H2.72095Z" fill="#466153"/>
<path d="M23.1279 2.54301C23.1272 1.88174 22.8641 1.24776 22.3965 0.780169C21.929 0.312579 21.295 0.0495633 20.6337 0.0488281H4.30815C3.64687 0.0495633 3.0129 0.312579 2.54531 0.780169C2.07772 1.24776 1.8147 1.88174 1.81396 2.54301V2.9965H23.1279V2.54301Z" fill="#466153"/>
</svg>
