<svg width="37" height="20" viewBox="0 0 37 20" fill="none" xmlns="http://www.w3.org/2000/svg">
<path d="M30.6561 6.35967V2.89752C30.6561 2.66797 30.5649 2.44781 30.4026 2.28549C30.2402 2.12317 30.0201 2.03198 29.7905 2.03198V7.22521C30.0201 7.22521 30.2402 7.13402 30.4026 6.9717C30.5649 6.80938 30.6561 6.58923 30.6561 6.35967Z" fill="#466153"/>
<path d="M13.3452 4.05156H7.93555C5.7373 4.05156 3.4636 3.93926 3.4636 6.64818C3.4636 6.87773 3.55479 7.09788 3.71711 7.2602C3.87943 7.42252 4.09958 7.51371 4.32914 7.51371H6.87894L5.3385 12.1349C4.90444 12.1627 4.48702 12.3123 4.13414 12.5666C3.78126 12.8209 3.50723 13.1695 3.34351 13.5725H7.62258C7.48266 13.2291 7.26254 12.9243 6.98064 12.6835C6.98064 12.6835 8.6564 7.60445 8.6564 7.51371H14.2107C14.4403 7.51371 14.6604 7.42252 14.8227 7.2602C14.985 7.09788 15.0762 6.87773 15.0762 6.64818V5.78264C15.0757 5.32369 14.8931 4.8837 14.5686 4.55917C14.2441 4.23465 13.8041 4.0521 13.3452 4.05156Z" fill="#466153"/>
<path d="M30.8724 8.9563C30.547 8.9567 30.2222 8.98608 29.902 9.04408L30.7994 10.6893C30.8238 10.6887 30.8479 10.6874 30.8724 10.6874C31.7099 10.6866 32.5236 10.966 33.184 11.4809C33.8445 11.9959 34.3137 12.7169 34.5172 13.5293C34.7207 14.3417 34.6467 15.1988 34.3069 15.9643C33.9672 16.7297 33.3812 17.3596 32.6422 17.7537C31.9033 18.1478 31.0538 18.2835 30.2288 18.1392C29.4038 17.9949 28.6508 17.5788 28.0896 16.9573C27.5283 16.3357 27.191 15.5443 27.1313 14.7089C27.0716 13.8736 27.2929 13.0423 27.7601 12.3472L26.8639 10.7043C26.0066 11.6263 25.4931 12.8155 25.4097 14.0717C25.3264 15.328 25.6782 16.5746 26.4062 17.6019C27.1341 18.6291 28.1936 19.3743 29.4065 19.712C30.6194 20.0497 31.9116 19.9593 33.0656 19.456C34.2197 18.9528 35.1652 18.0674 35.743 16.9488C36.3209 15.8302 36.4958 14.5468 36.2384 13.3144C35.9809 12.0819 35.3069 10.9758 34.3296 10.1821C33.3523 9.38836 32.1314 8.95549 30.8724 8.9563Z" fill="#466153"/>
<path d="M20.8884 14.9559C19.9967 15.3036 18.814 15.3036 17.0238 15.3036H9.132C8.97522 15.9648 8.64175 16.571 8.16723 17.0574C7.6927 17.5438 7.09494 17.8921 6.43782 18.0652C5.78069 18.2383 5.08889 18.2296 4.43632 18.0401C3.78376 17.8505 3.19495 17.4872 2.7328 16.9891C2.27065 16.4909 1.95253 15.8765 1.81243 15.2115C1.67233 14.5466 1.71551 13.8561 1.93735 13.2138C2.1592 12.5715 2.55137 12.0015 3.07198 11.5648C3.59259 11.1281 4.22207 10.841 4.89317 10.7342L5.48577 8.9563H5.48325C4.48573 8.95603 3.50705 9.22794 2.65264 9.74276C1.79824 10.2576 1.1005 10.9958 0.634612 11.8778C0.168723 12.7598 -0.0476575 13.7523 0.00878321 14.7482C0.0652239 15.7441 0.392346 16.7058 0.954905 17.5295C1.51746 18.3533 2.29413 19.0079 3.20123 19.4229C4.10833 19.8379 5.11147 19.9975 6.10257 19.8845C7.09367 19.7715 8.03516 19.3903 8.82559 18.7818C9.61603 18.1733 10.2254 17.3607 10.5882 16.4314C10.6514 16.6801 10.7441 16.9203 10.8644 17.1469C11.405 18.1605 12.4292 18.7657 13.6034 18.7657H19.404C20.1613 18.7657 21.5293 18.4628 22.1841 16.4351C22.3839 15.7877 22.4921 15.1155 22.5055 14.438V12.7774C22.4161 13.1889 21.9174 14.5547 20.8884 14.9559Z" fill="#466153"/>
<path d="M22.5054 12.6657V12.7778C22.5255 12.6854 22.5252 12.6403 22.5054 12.6657Z" fill="#466153"/>
<path d="M8.76951 10.0535L8.17676 11.8319C8.6458 12.3157 8.97579 12.917 9.13202 13.5725H10.8963C10.6703 12.1682 9.90774 10.9065 8.76951 10.0535Z" fill="#466153"/>
<path d="M7.62245 15.3036H3.34424C3.51651 15.7298 3.81217 16.0948 4.19329 16.3518C4.57442 16.6089 5.02364 16.7462 5.48334 16.7462C5.94304 16.7462 6.39227 16.6089 6.77339 16.3518C7.15452 16.0948 7.45018 15.7298 7.62245 15.3036Z" fill="#466153"/>
<path d="M22.3241 9.20985C22.1614 9.04971 21.9419 8.96038 21.7136 8.96131C21.4852 8.96224 21.2665 9.05336 21.1051 9.21481C20.9436 9.37627 20.8525 9.59499 20.8516 9.82332C20.8506 10.0516 20.94 10.2711 21.1001 10.4339L23.4082 12.742C23.571 12.9021 23.7904 12.9914 24.0188 12.9905C24.2471 12.9896 24.4658 12.8985 24.6273 12.737C24.7887 12.5755 24.8798 12.3568 24.8808 12.1285C24.8817 11.9002 24.7924 11.6807 24.6322 11.518L22.3241 9.20985Z" fill="#466153"/>
<path d="M25.7864 9.20988L24.0903 7.51378H24.3088C24.5384 7.51378 24.7585 7.42259 24.9209 7.26027C25.0832 7.09795 25.1744 6.8778 25.1744 6.64824V5.79901L29.0886 12.9752C28.7476 13.3903 28.5616 13.9111 28.5626 14.4483C28.5636 14.9855 28.7515 15.5057 29.094 15.9195C29.4365 16.3334 29.9124 16.6151 30.44 16.7165C30.9675 16.8179 31.5139 16.7326 31.9855 16.4751C32.457 16.2177 32.8242 15.8043 33.0243 15.3057C33.2243 14.8071 33.2446 14.2544 33.0817 13.7425C32.9189 13.2306 32.5829 12.7913 32.1316 12.4999C31.6802 12.2086 31.1416 12.0833 30.608 12.1457L27.9224 7.22159C27.9679 7.22395 28.0136 7.22517 28.0595 7.22527H28.925V2.03204H28.0595C27.6018 2.03239 27.1523 2.15368 26.7565 2.38364C26.3607 2.61359 26.0327 2.94404 25.8058 3.34153L24.7081 1.32915C24.6536 1.22936 24.5801 1.14127 24.4916 1.06991C24.4031 0.998544 24.3015 0.945305 24.1924 0.913229C24.0834 0.881154 23.9691 0.870871 23.8561 0.882967C23.7431 0.895063 23.6335 0.929302 23.5337 0.983728C23.4339 1.03815 23.3459 1.1117 23.2745 1.20017C23.2031 1.28864 23.1499 1.3903 23.1178 1.49935C23.0857 1.60839 23.0755 1.72269 23.0876 1.83571C23.0996 1.94873 23.1339 2.05826 23.1883 2.15805L23.7999 3.27921C22.8854 2.7068 21.4676 2.32055 19.4041 2.32055C17.6638 2.32055 16.313 3.10523 15.6006 4.53005C15.2759 5.19034 15.0972 5.91275 15.0764 6.64824C15.0764 6.8778 15.1676 7.09795 15.3299 7.26027C15.4922 7.42259 15.7124 7.51378 15.942 7.51378H22.0007C22.0006 7.62746 22.0229 7.74006 22.0664 7.84508C22.1099 7.95011 22.1738 8.04551 22.2543 8.12579L24.5624 10.4339C24.7251 10.594 24.9446 10.6834 25.1729 10.6824C25.4012 10.6815 25.6199 10.5904 25.7814 10.4289C25.9429 10.2675 26.034 10.0488 26.0349 9.82042C26.0358 9.59209 25.9465 9.37264 25.7864 9.20988Z" fill="#466153"/>
<path d="M17.8894 8.66772H10.2834C10.5227 8.85559 10.7395 9.07047 10.9294 9.30808C11.2926 9.75318 11.5517 10.378 11.5425 10.9757C11.5425 12.1105 11.3859 13.1043 11.1386 13.5723H17.0238C20.6529 13.5723 20.7745 13.4296 20.7745 12.1297C20.7745 11.9904 20.8081 11.8532 20.8726 11.7297C20.9371 11.6062 21.0305 11.5001 21.1448 11.4205L21.2898 11.2029C20.2379 11.0807 19.4229 10.88 18.8547 10.6487C18.4841 10.4751 17.9531 10.2794 17.8894 9.82163C17.8894 9.53456 17.8894 8.95501 17.8894 8.66772Z" fill="#466153"/>
</svg>
