<svg width="37" height="21" viewBox="0 0 37 21" fill="none" xmlns="http://www.w3.org/2000/svg">
<path d="M29.4242 13.4011C28.6752 13.4011 27.9429 13.6232 27.3201 14.0394C26.6973 14.4555 26.2119 15.047 25.9253 15.7391C25.6386 16.4311 25.5636 17.1926 25.7097 17.9272C25.8559 18.6619 26.2166 19.3367 26.7462 19.8664C27.2759 20.396 27.9507 20.7567 28.6854 20.9029C29.42 21.049 30.1815 20.974 30.8735 20.6874C31.5656 20.4007 32.1571 19.9153 32.5732 19.2925C32.9894 18.6697 33.2115 17.9374 33.2115 17.1884C33.2104 16.1843 32.811 15.2216 32.101 14.5116C31.391 13.8016 30.4283 13.4023 29.4242 13.4011ZM29.4242 19.2277C29.0209 19.2277 28.6266 19.1081 28.2913 18.884C27.9559 18.6599 27.6945 18.3414 27.5402 17.9688C27.3858 17.5962 27.3454 17.1861 27.4241 16.7905C27.5028 16.395 27.697 16.0316 27.9822 15.7464C28.2674 15.4612 28.6308 15.267 29.0264 15.1883C29.422 15.1096 29.832 15.15 30.2046 15.3043C30.5773 15.4587 30.8958 15.7201 31.1198 16.0554C31.3439 16.3908 31.4635 16.7851 31.4635 17.1884C31.4629 17.7291 31.2479 18.2474 30.8655 18.6297C30.4832 19.012 29.9649 19.2271 29.4242 19.2277Z" fill="#466153"/>
<path d="M8.4484 13.4011C7.69935 13.4011 6.96712 13.6232 6.34431 14.0394C5.72149 14.4555 5.23607 15.047 4.94942 15.7391C4.66277 16.4311 4.58777 17.1926 4.73391 17.9272C4.88004 18.6619 5.24074 19.3367 5.7704 19.8664C6.30006 20.396 6.97488 20.7567 7.70954 20.9029C8.4442 21.049 9.20569 20.974 9.89772 20.6874C10.5898 20.4007 11.1812 19.9153 11.5974 19.2925C12.0135 18.6697 12.2357 17.9374 12.2357 17.1884C12.2345 16.1843 11.8351 15.2216 11.1251 14.5116C10.4151 13.8016 9.45249 13.4023 8.4484 13.4011ZM8.4484 19.2277C8.04506 19.2277 7.65078 19.1081 7.31542 18.884C6.98006 18.6599 6.71868 18.3414 6.56433 17.9688C6.40998 17.5962 6.3696 17.1861 6.44829 16.7905C6.52697 16.395 6.7212 16.0316 7.0064 15.7464C7.2916 15.4612 7.65496 15.267 8.05055 15.1883C8.44613 15.1096 8.85617 15.15 9.2288 15.3043C9.60143 15.4587 9.91993 15.7201 10.144 16.0554C10.3681 16.3908 10.4877 16.7851 10.4877 17.1884C10.4871 17.7291 10.272 18.2474 9.88972 18.6297C9.50741 19.012 8.98906 19.2271 8.4484 19.2277Z" fill="#466153"/>
<path d="M35.9858 10.5012L29.2618 9.31059L23.8844 4.00034C23.5579 3.67621 23.1161 3.49483 22.6561 3.49598H9.10851C8.58904 3.49488 8.08101 3.64859 7.64929 3.93749C7.21756 4.2264 6.8817 4.63739 6.68459 5.11802L4.95032 9.32254H1.74797C1.28454 9.32308 0.840254 9.50741 0.512564 9.8351C0.184873 10.1628 0.000539717 10.6071 0 11.0705V16.3144C0.000539717 16.7778 0.184873 17.2221 0.512564 17.5498C0.840254 17.8775 1.28454 18.0618 1.74797 18.0624H3.87065C3.74138 17.3881 3.76262 16.6937 3.93288 16.0286C4.10314 15.3635 4.4182 14.7443 4.85555 14.2151C5.2929 13.6859 5.84174 13.2599 6.46285 12.9675C7.08396 12.675 7.76199 12.5234 8.44851 12.5234C9.13502 12.5234 9.81306 12.675 10.4342 12.9675C11.0553 13.2599 11.6041 13.6859 12.0415 14.2151C12.4788 14.7443 12.7939 15.3635 12.9641 16.0286C13.1344 16.6937 13.1556 17.3881 13.0264 18.0624H24.8463C24.717 17.3881 24.7382 16.6937 24.9085 16.0286C25.0787 15.3635 25.3938 14.7443 25.8312 14.2151C26.2685 13.6859 26.8173 13.2599 27.4385 12.9675C28.0596 12.675 28.7376 12.5234 29.4241 12.5234C30.1106 12.5234 30.7887 12.675 31.4098 12.9675C32.0309 13.2599 32.5797 13.6859 33.0171 14.2151C33.4544 14.7443 33.7695 15.3635 33.9397 16.0286C34.11 16.6937 34.1312 17.3881 34.002 18.0624H34.0854C34.7805 18.0616 35.447 17.7851 35.9385 17.2936C36.4301 16.802 36.7065 16.1356 36.7073 15.4404V11.3618C36.7073 11.1565 36.635 10.9577 36.5031 10.8003C36.3711 10.6429 36.188 10.5371 35.9858 10.5012ZM9.68665 8.44855C9.68665 8.68035 9.59457 8.90265 9.43067 9.06655C9.26676 9.23045 9.04446 9.32254 8.81267 9.32254H6.76857C6.69675 9.32254 6.62605 9.30485 6.5627 9.27102C6.49935 9.2372 6.44532 9.18828 6.40538 9.1286C6.36544 9.06892 6.34082 9.00032 6.3337 8.92886C6.32658 8.8574 6.33718 8.78529 6.36457 8.7189L7.57496 5.78465C7.64096 5.62464 7.75299 5.48784 7.89684 5.39158C8.04068 5.29532 8.20988 5.24393 8.38296 5.24394H8.81267C9.04446 5.24394 9.26676 5.33603 9.43067 5.49993C9.59457 5.66383 9.68665 5.88613 9.68665 6.11793V8.44855ZM17.1883 8.44855C17.1883 8.68035 17.0963 8.90265 16.9324 9.06655C16.7685 9.23045 16.5462 9.32254 16.3144 9.32254H12.0173C11.7855 9.32254 11.5632 9.23045 11.3993 9.06655C11.2354 8.90265 11.1433 8.68035 11.1433 8.44855V6.11793C11.1433 5.88613 11.2354 5.66383 11.3993 5.49993C11.5632 5.33603 11.7855 5.24394 12.0173 5.24394H16.3144C16.5462 5.24394 16.7685 5.33603 16.9324 5.49993C17.0963 5.66383 17.1883 5.88613 17.1883 6.11793V8.44855ZM20.6843 12.5271H19.519C19.2872 12.5271 19.0649 12.4351 18.901 12.2712C18.7371 12.1073 18.645 11.885 18.645 11.6532C18.645 11.4214 18.7371 11.1991 18.901 11.0352C19.0649 10.8713 19.2872 10.7792 19.519 10.7792H20.6843C20.9161 10.7792 21.1384 10.8713 21.3023 11.0352C21.4662 11.1991 21.5583 11.4214 21.5583 11.6532C21.5583 11.885 21.4662 12.1073 21.3023 12.2712C21.1384 12.4351 20.9161 12.5271 20.6843 12.5271ZM26.7982 9.32254H19.519C19.2872 9.32254 19.0649 9.23045 18.901 9.06655C18.7371 8.90265 18.645 8.68035 18.645 8.44855V6.11793C18.645 5.88613 18.7371 5.66383 18.901 5.49993C19.0649 5.33603 19.2872 5.24394 19.519 5.24394H23.3319C23.5597 5.24397 23.7786 5.33298 23.9418 5.49201L27.1031 8.5728C27.1653 8.63347 27.2079 8.71128 27.2257 8.79631C27.2434 8.88134 27.2354 8.96973 27.2027 9.05019C27.17 9.13065 27.114 9.19953 27.0419 9.24804C26.9699 9.29655 26.885 9.32248 26.7982 9.32254Z" fill="#466153"/>
<path d="M19.183 0.597586C19.125 0.423572 19.0137 0.272219 18.8649 0.164968C18.7161 0.0577159 18.5373 1.69854e-06 18.3539 7.36435e-09H13.6926C13.5092 -2.3792e-05 13.3305 0.0576373 13.1817 0.16482C13.0329 0.272002 12.9216 0.423275 12.8635 0.597222L12.1887 2.62195H19.8579L19.183 0.597586Z" fill="#466153"/>
</svg>
